<?xml version="1.0" encoding="UTF-8"?>
<svg width="80px" height="80px" viewBox="0 0 80 80" version="1.1" xmlns="http://www.w3.org/2000/svg" xmlns:xlink="http://www.w3.org/1999/xlink">
    <title>森园区</title>
    <g id="页面-1" stroke="none" stroke-width="1" fill="none" fill-rule="evenodd">
        <g id="转曲" transform="translate(-415.000000, -664.000000)">
            <g id="森园区" transform="translate(415.000000, 664.000000)">
                <path d="M35.1185653,0.00160469665 L44.2944665,1.0480895e-15 C46.4663168,1.0480895e-15 48.4209325,0.0647745037 50.2000414,0.192616132 L51.1533096,0.268592258 C51.3093703,0.282293957 51.4640432,0.296514306 51.6173597,0.311252022 L52.5212325,0.405876471 C57.257752,0.943542256 60.6695054,2.0083653 63.78379,3.55831149 L64.3644832,3.85460118 C64.460768,3.90492688 64.556825,3.95572376 64.6526856,4.00699056 C69.5415744,6.62159695 73.3784031,10.4584256 75.9930094,15.3473144 L76.1453988,15.6355168 L76.1453988,15.6355168 L76.4416885,16.21621 C77.9916347,19.3304946 79.0564577,22.742248 79.5941235,27.4787675 L79.688748,28.3826403 C79.7034857,28.5359568 79.717706,28.6906297 79.7314077,28.8466904 L79.8073839,29.7999586 C79.9352255,31.5790675 80,33.5336832 80,35.7055335 L80,44.2944665 C80,46.4663168 79.9352255,48.4209325 79.8073839,50.2000414 L79.7314077,51.1533096 C79.717706,51.3093703 79.7034857,51.4640432 79.688748,51.6173597 L79.5941235,52.5212325 C79.0564577,57.257752 77.9916347,60.6695054 76.4416885,63.78379 L76.1453988,64.3644832 C76.0950731,64.460768 76.0442762,64.556825 75.9930094,64.6526856 C73.3784031,69.5415744 69.5415744,73.3784031 64.6526856,75.9930094 L64.3644832,76.1453988 L64.3644832,76.1453988 L63.78379,76.4416885 C60.6695054,77.9916347 57.257752,79.0564577 52.5212325,79.5941235 L51.6173597,79.688748 C51.4640432,79.7034857 51.3093703,79.717706 51.1533096,79.7314077 L50.2000414,79.8073839 C48.4209325,79.9352255 46.4663168,80 44.2944665,80 L35.7055335,80 C33.5336832,80 31.5790675,79.9352255 29.7999586,79.8073839 L28.8466904,79.7314077 C28.6906297,79.717706 28.5359568,79.7034857 28.3826403,79.688748 L27.4787675,79.5941235 C22.742248,79.0564577 19.3304946,77.9916347 16.21621,76.4416885 L15.6355168,76.1453988 C15.539232,76.0950731 15.443175,76.0442762 15.3473144,75.9930094 C10.4584256,73.3784031 6.62159695,69.5415744 4.00699056,64.6526856 L3.85460118,64.3644832 L3.85460118,64.3644832 L3.55831149,63.78379 C2.0083653,60.6695054 0.943542256,57.257752 0.405876471,52.5212325 L0.311252022,51.6173597 C0.296514306,51.4640432 0.282293957,51.3093703 0.268592258,51.1533096 L0.192616132,50.2000414 C0.07639647,48.5826697 0.0122983984,46.820251 0.00160469665,44.8814347 L6.98726336e-16,35.7055335 C6.98726336e-16,33.5336832 0.0647745037,31.5790675 0.192616132,29.7999586 L0.268592258,28.8466904 C0.282293957,28.6906297 0.296514306,28.5359568 0.311252022,28.3826403 L0.405876471,27.4787675 C0.943542256,22.742248 2.0083653,19.3304946 3.55831149,16.21621 L3.85460118,15.6355168 C3.90492688,15.539232 3.95572376,15.443175 4.00699056,15.3473144 C6.62159695,10.4584256 10.4584256,6.62159695 15.3473144,4.00699056 L15.6355168,3.85460118 L15.6355168,3.85460118 L16.21621,3.55831149 C19.3304946,2.0083653 22.742248,0.943542256 27.4787675,0.405876471 L28.3826403,0.311252022 C28.5359568,0.296514306 28.6906297,0.282293957 28.8466904,0.268592258 L29.7999586,0.192616132 C31.4173303,0.07639647 33.179749,0.0122983984 35.1185653,0.00160469665 Z" id="矩形备份-11" fill="#00C773"></path>
                <g id="编组-11" transform="translate(17.163295, 17.000000)" fill="#FFFFFF">
                    <path d="M39.836705,0 L48.836705,0 L48.836705,0 L48.836705,4 C48.836705,7.86599325 45.7026983,11 41.836705,11 L32.836705,11 L32.836705,11 L32.836705,7 C32.836705,3.13400675 35.9707118,7.10171439e-16 39.836705,0 Z" id="矩形备份-12" opacity="0.600000024"></path>
                    <path d="M23.7304532,1.09562767 C26.4880925,1.24014943 28.6064428,3.59281582 28.4619211,6.35045513 C28.3212025,9.03552499 26.0870283,11.1145099 23.4239278,11.088661 L23.2070936,11.081923 C16.4158923,10.7260112 10.607127,15.8596689 10.0898771,22.6029834 L10.070025,22.9105928 L10.017689,23.9092223 C9.65638465,30.8033206 14.9522605,36.6849865 21.8463588,37.0462909 C26.188068,37.2738303 30.2545597,35.2501712 32.7138122,31.7743582 L32.9046003,31.4969496 C34.4390225,29.2010816 37.5440862,28.5838079 39.8399541,30.1182301 C42.1358221,31.6526523 42.7530958,34.757716 41.2186736,37.0535839 C36.8430765,43.6005389 29.3361337,47.4525369 21.3229992,47.0325863 C9.03771606,46.3887419 -0.42801499,36.0059859 0.0149308208,23.7575892 L0.0313936862,23.3858627 L0.0837296424,22.3872332 C0.734077529,9.97785628 11.3210763,0.445279788 23.7304532,1.09562767 Z" id="路径" fill-rule="nonzero"></path>
                </g>
            </g>
        </g>
    </g>
</svg>