<?xml version="1.0" encoding="UTF-8"?>
<svg width="64px" height="20px" viewBox="0 0 64 20" version="1.1" xmlns="http://www.w3.org/2000/svg" xmlns:xlink="http://www.w3.org/1999/xlink">
    <title>编组 15</title>
    <g id="页面-1" stroke="none" stroke-width="1" fill="none" fill-rule="evenodd">
        <g id="编组-15">
            <g id="编组-14">
                <g id="森园区备份">
                    <path d="M8.77964134,0.000401174163 L11.0736166,2.62022376e-16 C11.6165792,2.62022376e-16 12.1052331,0.0161936259 12.5500103,0.048154033 L12.7883274,0.0671480645 C12.8273426,0.0705734892 12.8660108,0.0741285765 12.9043399,0.0778130056 L13.1303081,0.101469118 C14.314438,0.235885564 15.1673764,0.502091325 15.9459475,0.889577873 L16.0911208,0.963650294 C16.115192,0.976231719 16.1392062,0.988930941 16.1631714,1.00174764 C17.3853936,1.65539924 18.3446008,2.61460639 18.9982524,3.83682861 L19.0363497,3.90887921 L19.0363497,3.90887921 L19.1104221,4.05405251 C19.4979087,4.83262365 19.7641144,5.685562 19.8985309,6.86969188 L19.922187,7.09566008 C19.9258714,7.13398921 19.9294265,7.17265744 19.9328519,7.21167261 L19.951846,7.44998966 C19.9838064,7.89476687 20,8.38342081 20,8.92638338 L20,11.0736166 C20,11.6165792 19.9838064,12.1052331 19.951846,12.5500103 L19.9328519,12.7883274 C19.9294265,12.8273426 19.9258714,12.8660108 19.922187,12.9043399 L19.8985309,13.1303081 C19.7641144,14.314438 19.4979087,15.1673764 19.1104221,15.9459475 L19.0363497,16.0911208 C19.0237683,16.115192 19.0110691,16.1392062 18.9982524,16.1631714 C18.3446008,17.3853936 17.3853936,18.3446008 16.1631714,18.9982524 L16.0911208,19.0363497 L16.0911208,19.0363497 L15.9459475,19.1104221 C15.1673764,19.4979087 14.314438,19.7641144 13.1303081,19.8985309 L12.9043399,19.922187 C12.8660108,19.9258714 12.8273426,19.9294265 12.7883274,19.9328519 L12.5500103,19.951846 C12.1052331,19.9838064 11.6165792,20 11.0736166,20 L8.92638338,20 C8.38342081,20 7.89476687,19.9838064 7.44998966,19.951846 L7.21167261,19.9328519 C7.17265744,19.9294265 7.13398921,19.9258714 7.09566008,19.922187 L6.86969188,19.8985309 C5.685562,19.7641144 4.83262365,19.4979087 4.05405251,19.1104221 L3.90887921,19.0363497 C3.88480801,19.0237683 3.86079375,19.0110691 3.83682861,18.9982524 C2.61460639,18.3446008 1.65539924,17.3853936 1.00174764,16.1631714 L0.963650294,16.0911208 L0.963650294,16.0911208 L0.889577873,15.9459475 C0.502091325,15.1673764 0.235885564,14.314438 0.101469118,13.1303081 L0.0778130056,12.9043399 C0.0741285765,12.8660108 0.0705734892,12.8273426 0.0671480645,12.7883274 L0.048154033,12.5500103 C0.0190991175,12.1456674 0.0030745996,11.7050627 0.000401174163,11.2203587 L1.74681584e-16,8.92638338 C1.74681584e-16,8.38342081 0.0161936259,7.89476687 0.048154033,7.44998966 L0.0671480645,7.21167261 C0.0705734892,7.17265744 0.0741285765,7.13398921 0.0778130056,7.09566008 L0.101469118,6.86969188 C0.235885564,5.685562 0.502091325,4.83262365 0.889577873,4.05405251 L0.963650294,3.90887921 C0.976231719,3.88480801 0.988930941,3.86079375 1.00174764,3.83682861 C1.65539924,2.61460639 2.61460639,1.65539924 3.83682861,1.00174764 L3.90887921,0.963650294 L3.90887921,0.963650294 L4.05405251,0.889577873 C4.83262365,0.502091325 5.685562,0.235885564 6.86969188,0.101469118 L7.09566008,0.0778130056 C7.13398921,0.0741285765 7.17265744,0.0705734892 7.21167261,0.0671480645 L7.44998966,0.048154033 C7.85433258,0.0190991175 8.29493725,0.0030745996 8.77964134,0.000401174163 Z" id="矩形备份-11" fill="#00C773"></path>
                    <g id="编组-11" transform="translate(4.290824, 4.250000)" fill="#FFFFFF">
                        <path d="M10.9591763,0 L12.2091763,0 L12.2091763,0 C12.2091763,1.51878306 10.9779593,2.75 9.45917625,2.75 L8.20917625,2.75 L8.20917625,2.75 C8.20917625,1.23121694 9.44039319,2.78995922e-16 10.9591763,0 Z" id="矩形备份-12" opacity="0.600000024"></path>
                        <path d="M5.9326133,0.273906918 C6.62202313,0.310037357 7.15161071,0.898203954 7.11548027,1.58761378 C7.08030063,2.25888125 6.52175708,2.77862748 5.85598194,2.77216524 L5.80177341,2.77048076 C4.10397308,2.68150281 2.65178176,3.96491721 2.52246927,5.65074584 L2.51750625,5.72764819 L2.50442226,5.97730557 C2.41409616,7.70083014 3.73806512,9.17124664 5.46158969,9.26157273 C6.547017,9.31845757 7.56363993,8.81254281 8.17845305,7.94358956 L8.22615007,7.87423739 C8.60975562,7.30027041 9.38602154,7.14595197 9.95998853,7.52955752 C10.5339555,7.91316307 10.688274,8.68942899 10.3046684,9.26339598 C9.21076913,10.9001347 7.33403342,11.8631342 5.3307498,11.7581466 C2.25942901,11.5971855 -0.107003748,9.00149649 0.00373270519,5.9393973 L0.00784842154,5.84646568 L0.0209324106,5.5968083 C0.183519382,2.49446407 2.83026907,0.111319947 5.9326133,0.273906918 Z" id="路径" fill-rule="nonzero"></path>
                    </g>
                </g>
                <path d="M36.424,9.888 L36.918,8.627 C34.786,7.964 33.317,7.444 32.134,6.625 L36.216,6.625 L36.216,5.494 L31.77,5.494 L31.77,4.337 L30.496,4.285 L30.496,5.494 L26.037,5.494 L26.037,6.625 L30.106,6.625 C29.014,7.444 27.519,7.99 25.361,8.64 L25.842,9.875 C27.883,9.147 29.352,8.471 30.496,7.626 L30.496,9.784 L31.77,9.784 L31.77,7.639 C32.966,8.523 34.461,9.16 36.424,9.888 Z M29.196,16.102 L29.196,13.06 C29.573,13.359 30.028,13.71 30.392,14.061 L29.963,14.373 L30.613,15.361 C31.549,14.542 32.264,13.775 32.849,12.943 L32.849,16.102 L34.071,16.102 L34.071,12.982 C34.734,13.853 35.527,14.724 36.424,15.413 L37.022,14.243 C35.93,13.554 34.968,12.696 34.292,11.708 L36.411,11.708 L36.411,10.564 L34.071,10.564 L34.071,9.29 L32.849,9.238 L32.849,10.564 L31.354,10.564 L31.354,11.708 L32.602,11.708 C32.082,12.488 31.367,13.255 30.574,13.918 L31.016,13.216 C30.639,12.878 29.872,12.28 29.378,11.968 L29.196,12.254 L29.196,11.708 L30.886,11.708 L30.886,10.564 L29.196,10.564 L29.196,9.29 L27.935,9.238 L27.935,10.564 L25.842,10.564 L25.842,11.708 L27.727,11.708 C27.155,12.657 26.349,13.567 25.296,14.347 L25.92,15.439 C26.713,14.828 27.376,14.113 27.935,13.372 L27.935,16.102 L29.196,16.102 Z M40.39,16.05 L40.39,15.517 L48.19,15.517 L48.19,16.05 L49.386,16.05 L49.386,4.688 L39.09,4.688 L39.09,16.05 L40.39,16.05 Z M48.19,14.36 L40.39,14.36 L40.39,5.949 L48.19,5.949 L48.19,14.36 Z M47.124,8.094 L47.124,7.015 L41.365,7.015 L41.365,8.094 L47.124,8.094 Z M41.248,14.191 C42.665,13.19 43.367,12.397 43.432,10.278 L44.433,10.278 L44.433,12.371 C44.433,13.307 44.745,13.606 45.525,13.606 L46.396,13.606 C47.28,13.606 47.553,13.281 47.657,12.449 C47.696,12.15 47.722,11.929 47.735,11.63 L46.721,11.344 C46.721,11.552 46.695,11.747 46.656,12.046 C46.591,12.54 46.5,12.579 46.149,12.579 L45.954,12.579 C45.603,12.579 45.525,12.553 45.525,12.15 L45.525,10.278 L47.709,10.278 L47.709,9.199 L40.78,9.199 L40.78,10.278 L42.288,10.278 C42.223,11.734 41.833,12.345 40.507,13.112 L41.248,14.191 Z M62.959,15.634 L62.959,14.373 L53.911,14.373 L53.911,6.235 L62.712,6.235 L62.712,4.948 L52.559,4.948 L52.559,15.634 L62.959,15.634 Z M61.009,14.113 L61.958,12.852 C61.217,12.059 60.242,11.058 59.215,10.031 C60.086,9.082 60.853,8.107 61.542,7.158 L60.45,6.313 C59.787,7.236 59.046,8.159 58.227,9.069 C57.187,8.029 56.173,7.093 55.445,6.43 L54.535,7.418 C55.211,8.055 56.199,9.03 57.239,10.109 C56.199,11.149 55.107,12.111 54.015,12.93 L54.86,14.1 C56.004,13.229 57.122,12.202 58.201,11.11 C59.241,12.189 60.242,13.268 61.009,14.113 Z" id="森园区" fill="#FFFFFF" fill-rule="nonzero"></path>
            </g>
            <rect id="矩形" opacity="0.429999977" x="0" y="0" width="64" height="20"></rect>
        </g>
    </g>
</svg>