{
  "asset": {
    "version": "2.0",
    "generator": "GLTFExporter"
  },
  "scenes": [
    {
      "name": "Root Scene",
      "nodes": [
        12
      ]
    }
  ],
  "scene": 0,
  "nodes": [
    {
      "matrix": [
        0.0542149990797043,
        0,
        0,
        0,
        0,
        1.85570042724179e-9,
        -0.05421499722400387,
        0,
        0,
        0.05421499722400387,
        1.85570042724179e-9,
        0,
        -0.1500553637743,
        2.13329935073853,
        0.224312767386436,
        1
      ],
      "name": "Lo-电源PORT_10",
      "extras": {
        "name": "Lo-电源PORT_10"
      }
    },
    {
      "matrix": [
        0.0542149990797043,
        0,
        0,
        0,
        0,
        1.85570042724179e-9,
        -0.05421499722400387,
        0,
        0,
        0.05421499722400387,
        1.85570042724179e-9,
        0,
        0.150055348873138,
        2.13329935073853,
        0.224312767386436,
        1
      ],
      "name": "Lo-电源PORT_09",
      "extras": {
        "name": "Lo-电源PORT_09"
      }
    },
    {
      "matrix": [
        0.0542149990797043,
        0,
        0,
        0,
        0,
        1.85570042724179e-9,
        -0.05421499722400387,
        0,
        0,
        0.05421499722400387,
        1.85570042724179e-9,
        0,
        -0.1500553637743,
        2.13329935073853,
        0.155734598636627,
        1
      ],
      "name": "Lo-电源PORT_08",
      "extras": {
        "name": "Lo-电源PORT_08"
      }
    },
    {
      "matrix": [
        0.0542149990797043,
        0,
        0,
        0,
        0,
        1.85570042724179e-9,
        -0.05421499722400387,
        0,
        0,
        0.05421499722400387,
        1.85570042724179e-9,
        0,
        0.150055348873138,
        2.13329935073853,
        0.155734598636627,
        1
      ],
      "name": "Lo-电源PORT_07",
      "extras": {
        "name": "Lo-电源PORT_07"
      }
    },
    {
      "matrix": [
        0.0542149990797043,
        0,
        0,
        0,
        0,
        1.85570042724179e-9,
        -0.05421499722400387,
        0,
        0,
        0.05421499722400387,
        1.85570042724179e-9,
        0,
        -0.1500553637743,
        2.13329935073853,
        0.0871564298868179,
        1
      ],
      "name": "Lo-电源PORT_06",
      "extras": {
        "name": "Lo-电源PORT_06"
      }
    },
    {
      "matrix": [
        0.0542149990797043,
        0,
        0,
        0,
        0,
        1.85570042724179e-9,
        -0.05421499722400387,
        0,
        0,
        0.05421499722400387,
        1.85570042724179e-9,
        0,
        0.150055348873138,
        2.13329935073853,
        0.0871564298868179,
        1
      ],
      "name": "Lo-电源PORT_05",
      "extras": {
        "name": "Lo-电源PORT_05"
      }
    },
    {
      "matrix": [
        0.0542149990797043,
        0,
        0,
        0,
        0,
        1.85570042724179e-9,
        -0.05421499722400387,
        0,
        0,
        0.05421499722400387,
        1.85570042724179e-9,
        0,
        -0.1500553637743,
        2.13329935073853,
        0.0185782816261053,
        1
      ],
      "name": "Lo-电源PORT_04",
      "extras": {
        "name": "Lo-电源PORT_04"
      }
    },
    {
      "matrix": [
        0.0542149990797043,
        0,
        0,
        0,
        0,
        1.85570042724179e-9,
        -0.05421499722400387,
        0,
        0,
        0.05421499722400387,
        1.85570042724179e-9,
        0,
        0.150055348873138,
        2.13329935073853,
        0.0185782816261053,
        1
      ],
      "name": "Lo-电源PORT_03",
      "extras": {
        "name": "Lo-电源PORT_03"
      }
    },
    {
      "matrix": [
        0.0542149990797043,
        0,
        0,
        0,
        0,
        1.85570042724179e-9,
        -0.05421499722400387,
        0,
        0,
        0.05421499722400387,
        1.85570042724179e-9,
        0,
        0.150055348873138,
        2.13329935073853,
        -0.0499998666346073,
        1
      ],
      "name": "Lo-电源PORT_02",
      "extras": {
        "name": "Lo-电源PORT_02"
      }
    },
    {
      "matrix": [
        0.0542149990797043,
        0,
        0,
        0,
        0,
        1.85570042724179e-9,
        -0.05421499722400387,
        0,
        0,
        0.05421499722400387,
        1.85570042724179e-9,
        0,
        -0.1500553637743,
        2.13329935073853,
        -0.0499998666346073,
        1
      ],
      "name": "Lo-电源PORT_01",
      "extras": {
        "name": "Lo-电源PORT_01"
      }
    },
    {
      "matrix": [
        0.00999999977648258,
        0,
        0,
        0,
        0,
        3.422854223488026e-10,
        -0.009999999434197158,
        0,
        0,
        0.009999999434197158,
        3.422854223488026e-10,
        0,
        0,
        5.03625692260812e-8,
        0,
        1
      ],
      "name": "Lo-BDOY_01",
      "extras": {
        "name": "Lo-BDOY_01"
      },
      "mesh": 0
    },
    {
      "matrix": [
        2.0281591996604406e-9,
        -1.3397010681064097e-17,
        0.009999999434197104,
        0,
        -4.371138739752926e-10,
        0.00999999977648257,
        8.708890049207503e-17,
        0,
        -0.009999999434197096,
        -4.37113873975301e-10,
        2.0281591996604406e-9,
        0,
        -0.230579242110252,
        0.254779249429703,
        0.288208842277527,
        1
      ],
      "name": "Lo-PRINGT_01",
      "extras": {
        "name": "Lo-PRINGT_01"
      },
      "mesh": 1
    },
    {
      "name": "RootNode",
      "extras": {
        "name": "RootNode"
      },
      "children": [
        0,
        1,
        2,
        3,
        4,
        5,
        6,
        7,
        8,
        9,
        10,
        11
      ]
    }
  ],
  "bufferViews": [
    {
      "buffer": 0,
      "byteOffset": 0,
      "byteLength": 366208,
      "target": 34962,
      "byteStride": 16
    },
    {
      "buffer": 0,
      "byteOffset": 366208,
      "byteLength": 274656,
      "target": 34962,
      "byteStride": 12
    },
    {
      "buffer": 0,
      "byteOffset": 640864,
      "byteLength": 274656,
      "target": 34962,
      "byteStride": 12
    },
    {
      "buffer": 0,
      "byteOffset": 915520,
      "byteLength": 183104,
      "target": 34962,
      "byteStride": 8
    },
    {
      "buffer": 0,
      "byteOffset": 1098624,
      "byteLength": 183104,
      "target": 34962,
      "byteStride": 8
    },
    {
      "buffer": 0,
      "byteOffset": 1281728,
      "byteLength": 91552,
      "target": 34962,
      "byteStride": 4
    },
    {
      "buffer": 0,
      "byteOffset": 1373280,
      "byteLength": 58128,
      "target": 34963
    },
    {
      "buffer": 0,
      "byteOffset": 1431408,
      "byteLength": 3840,
      "target": 34962,
      "byteStride": 12
    },
    {
      "buffer": 0,
      "byteOffset": 1435248,
      "byteLength": 3840,
      "target": 34962,
      "byteStride": 12
    },
    {
      "buffer": 0,
      "byteOffset": 1439088,
      "byteLength": 2560,
      "target": 34962,
      "byteStride": 8
    },
    {
      "buffer": 0,
      "byteOffset": 1441648,
      "byteLength": 2560,
      "target": 34962,
      "byteStride": 8
    },
    {
      "buffer": 0,
      "byteOffset": 1444208,
      "byteLength": 960,
      "target": 34963
    }
  ],
  "buffers": [
    {
      "byteLength": 1445168,
      "uri": "data:application/octet-stream;base64,"
    }
  ],
  "accessors": [
    {
      "bufferView": 0,
      "componentType": 5126,
      "count": 22888,
      "max": [
        1,
        1,
        1,
        1
      ],
      "min": [
        1,
        1,
        1,
        1
      ],
      "type": "VEC4"
    },
    {
      "bufferView": 1,
      "componentType": 5126,
      "count": 22888,
      "max": [
        1,
        1,
        1
      ],
      "min": [
        -1,
        -1,
        -1
      ],
      "type": "VEC3"
    },
    {
      "bufferView": 2,
      "componentType": 5126,
      "count": 22888,
      "max": [
        31.260000228881836,
        60.000003814697266,
        220
      ],
      "min": [
        -31.260000228881836,
        -60.00001525878906,
        -0.000005036256879975554
      ],
      "type": "VEC3"
    },
    {
      "bufferView": 3,
      "componentType": 5126,
      "count": 22888,
      "max": [
        0.9414889216423035,
        0.9242216944694519
      ],
      "min": [
        0.1630866378545761,
        0.27479851245880127
      ],
      "type": "VEC2"
    },
    {
      "bufferView": 4,
      "componentType": 5126,
      "count": 22888,
      "max": [
        0.9189453125,
        0.9990234375
      ],
      "min": [
        0.0009765625,
        0.0029296875
      ],
      "type": "VEC2"
    },
    {
      "bufferView": 5,
      "componentType": 5126,
      "count": 22888,
      "max": [
        1
      ],
      "min": [
        1
      ],
      "type": "SCALAR"
    },
    {
      "bufferView": 6,
      "componentType": 5123,
      "count": 29064,
      "max": [
        22887
      ],
      "min": [
        0
      ],
      "type": "SCALAR"
    },
    {
      "bufferView": 7,
      "componentType": 5126,
      "count": 320,
      "max": [
        4.815108241018606e-7,
        8.460274898425268e-7,
        1
      ],
      "min": [
        -0.000001437579726371041,
        -8.460285698674852e-7,
        -1
      ],
      "type": "VEC3"
    },
    {
      "bufferView": 8,
      "componentType": 5126,
      "count": 320,
      "max": [
        27.006755828857422,
        190.9550018310547,
        0.00000762939453125
      ],
      "min": [
        -84.44500732421875,
        -9.017906188964844,
        -46.11176300048828
      ],
      "type": "VEC3"
    },
    {
      "bufferView": 9,
      "componentType": 5126,
      "count": 320,
      "max": [
        0.8583696484565735,
        0.9544877409934998
      ],
      "min": [
        0.1195637434720993,
        0.08274948596954346
      ],
      "type": "VEC2"
    },
    {
      "bufferView": 10,
      "componentType": 5126,
      "count": 320,
      "max": [
        0.8583696484565735,
        0.9544877409934998
      ],
      "min": [
        0.1195637434720993,
        0.08274948596954346
      ],
      "type": "VEC2"
    },
    {
      "bufferView": 11,
      "componentType": 5123,
      "count": 480,
      "max": [
        319
      ],
      "min": [
        0
      ],
      "type": "SCALAR"
    }
  ],
  "materials": [
    {
      "pbrMetallicRoughness": {
        "metallicFactor": 0,
        "roughnessFactor": 0.95,
        "baseColorTexture": {
          "index": 0
        }
      },
      "occlusionTexture": {
        "index": 1,
        "texCoord": 1
      },
      "name": "Std_立式电池架1_jpglsdcj_01.bmp",
      "extras": {
        "gltfExtensions": {}
      }
    },
    {
      "pbrMetallicRoughness": {
        "metallicFactor": 0,
        "roughnessFactor": 1,
        "baseColorTexture": {
          "index": 2
        }
      },
      "alphaMode": "BLEND",
      "name": "Std_立式电池架_tga_alpha",
      "extras": {
        "gltfExtensions": {}
      }
    }
  ],
  "textures": [
    {
      "sampler": 0,
      "source": 0,
      "name": "smd_2.jpg"
    },
    {
      "sampler": 1,
      "source": 1,
      "name": "lsdcj_01_f_bmp.jpg"
    },
    {
      "sampler": 2,
      "source": 2,
      "name": "smd_1_f_tga.png"
    }
  ],
  "samplers": [
    {
      "magFilter": 9729,
      "minFilter": 9987,
      "wrapS": 10497,
      "wrapT": 10497
    },
    {
      "magFilter": 9729,
      "minFilter": 9987,
      "wrapS": 10497,
      "wrapT": 10497
    },
    {
      "magFilter": 9729,
      "minFilter": 9987,
      "wrapS": 10497,
      "wrapT": 10497
    }
  ],
  "images": [
    {
      "mimeType": "image/png",
      "uri": "data:image/png;base64,"
    },
    {
      "mimeType": "image/png",
      "uri": "data:image/png;base64,"
    },
    {
      "mimeType": "image/png",
      "uri": "data:image/png;base64,"
    }
  ],
  "meshes": [
    {
      "primitives": [
        {
          "mode": 4,
          "attributes": {
            "COLOR_0": 0,
            "NORMAL": 1,
            "POSITION": 2,
            "TEXCOORD_0": 3,
            "TEXCOORD_1": 4,
            "_ALPHAINDEX": 5
          },
          "extras": {
            "$cacheKey": "https://model.3dmomoda.com/models/0315E19F587C42489C87C02118340A05/0/gltf/true"
          },
          "indices": 6,
          "material": 0
        }
      ]
    },
    {
      "primitives": [
        {
          "mode": 4,
          "attributes": {
            "NORMAL": 7,
            "POSITION": 8,
            "TEXCOORD_0": 9,
            "TEXCOORD_1": 10
          },
          "indices": 11,
          "material": 1
        }
      ]
    }
  ]
}