{
  "asset": {
    "version": "2.0",
    "generator": "GLTFExporter"
  },
  "scenes": [
    {
      "name": "Root Scene",
      "nodes": [
        5
      ]
    }
  ],
  "scene": 0,
  "nodes": [
    {
      "name": "Lo-Body_01_0",
      "mesh": 0
    },
    {
      "name": "Lo-Body_01_1",
      "mesh": 1
    },
    {
      "name": "Lo-Body_01_2",
      "mesh": 2
    },
    {
      "name": "Lo-Body_01_3",
      "mesh": 3
    },
    {
      "matrix": [
        1,
        0,
        0,
        0,
        0,
        3.422854299994782e-8,
        -0.999999965771457,
        0,
        0,
        0.999999965771457,
        3.422854299994782e-8,
        0,
        0,
        0,
        0,
        1
      ],
      "name": "Lo-Body_01",
      "extras": {
        "name": "Lo-Body_01"
      },
      "children": [
        0,
        1,
        2,
        3
      ]
    },
    {
      "name": "RootNode",
      "extras": {
        "name": "RootNode"
      },
      "children": [
        4
      ]
    }
  ],
  "bufferViews": [
    {
      "buffer": 0,
      "byteOffset": 0,
      "byteLength": 8652,
      "target": 34962,
      "byteStride": 12
    },
    {
      "buffer": 0,
      "byteOffset": 8652,
      "byteLength": 8652,
      "target": 34962,
      "byteStride": 12
    },
    {
      "buffer": 0,
      "byteOffset": 17304,
      "byteLength": 5768,
      "target": 34962,
      "byteStride": 8
    },
    {
      "buffer": 0,
      "byteOffset": 23072,
      "byteLength": 2592,
      "target": 34963
    },
    {
      "buffer": 0,
      "byteOffset": 25664,
      "byteLength": 6144,
      "target": 34962,
      "byteStride": 12
    },
    {
      "buffer": 0,
      "byteOffset": 31808,
      "byteLength": 6144,
      "target": 34962,
      "byteStride": 12
    },
    {
      "buffer": 0,
      "byteOffset": 37952,
      "byteLength": 4096,
      "target": 34962,
      "byteStride": 8
    },
    {
      "buffer": 0,
      "byteOffset": 42048,
      "byteLength": 1848,
      "target": 34963
    },
    {
      "buffer": 0,
      "byteOffset": 43896,
      "byteLength": 96,
      "target": 34962,
      "byteStride": 12
    },
    {
      "buffer": 0,
      "byteOffset": 43992,
      "byteLength": 96,
      "target": 34962,
      "byteStride": 12
    },
    {
      "buffer": 0,
      "byteOffset": 44088,
      "byteLength": 64,
      "target": 34962,
      "byteStride": 8
    },
    {
      "buffer": 0,
      "byteOffset": 44152,
      "byteLength": 24,
      "target": 34963
    },
    {
      "buffer": 0,
      "byteOffset": 44176,
      "byteLength": 888,
      "target": 34962,
      "byteStride": 12
    },
    {
      "buffer": 0,
      "byteOffset": 45064,
      "byteLength": 888,
      "target": 34962,
      "byteStride": 12
    },
    {
      "buffer": 0,
      "byteOffset": 45952,
      "byteLength": 592,
      "target": 34962,
      "byteStride": 8
    },
    {
      "buffer": 0,
      "byteOffset": 46544,
      "byteLength": 264,
      "target": 34963
    }
  ],
  "buffers": [
    {
      "byteLength": 46808,
      "uri": "data:application/octet-stream;base64,"
    }
  ],
  "accessors": [
    {
      "bufferView": 0,
      "componentType": 5126,
      "count": 721,
      "max": [
        1,
        1,
        1
      ],
      "min": [
        -1,
        -1,
        -1
      ],
      "type": "VEC3"
    },
    {
      "bufferView": 1,
      "componentType": 5126,
      "count": 721,
      "max": [
        4.83999490737915,
        2.0946836471557617,
        3.895956039428711
      ],
      "min": [
        -4.865573883056641,
        -2.878051280975342,
        0.006157999858260155
      ],
      "type": "VEC3"
    },
    {
      "bufferView": 2,
      "componentType": 5126,
      "count": 721,
      "max": [
        0.48216837644577026,
        0.6410009264945984
      ],
      "min": [
        0.02365928888320923,
        0.12056094408035278
      ],
      "type": "VEC2"
    },
    {
      "bufferView": 3,
      "componentType": 5123,
      "count": 1296,
      "max": [
        720
      ],
      "min": [
        0
      ],
      "type": "SCALAR"
    },
    {
      "bufferView": 4,
      "componentType": 5126,
      "count": 512,
      "max": [
        1,
        1,
        1
      ],
      "min": [
        -1,
        -1,
        -1
      ],
      "type": "VEC3"
    },
    {
      "bufferView": 5,
      "componentType": 5126,
      "count": 512,
      "max": [
        4.865573883056641,
        3.1879167556762695,
        3.799999952316284
      ],
      "min": [
        -4.763340950012207,
        -3.1879167556762695,
        -0.003135999897494912
      ],
      "type": "VEC3"
    },
    {
      "bufferView": 6,
      "componentType": 5126,
      "count": 512,
      "max": [
        0.9202373623847961,
        0.8682477474212646
      ],
      "min": [
        0.03197997808456421,
        0.1133652925491333
      ],
      "type": "VEC2"
    },
    {
      "bufferView": 7,
      "componentType": 5123,
      "count": 924,
      "max": [
        511
      ],
      "min": [
        0
      ],
      "type": "SCALAR"
    },
    {
      "bufferView": 8,
      "componentType": 5126,
      "count": 8,
      "max": [
        0,
        1,
        0
      ],
      "min": [
        0,
        1,
        0
      ],
      "type": "VEC3"
    },
    {
      "bufferView": 9,
      "componentType": 5126,
      "count": 8,
      "max": [
        2.491624355316162,
        1.838938593864441,
        2.8675448894500732
      ],
      "min": [
        -2.8414809703826904,
        1.838938593864441,
        2.5324549674987793
      ],
      "type": "VEC3"
    },
    {
      "bufferView": 10,
      "componentType": 5126,
      "count": 8,
      "max": [
        0.50333571434021,
        0.32742995023727417
      ],
      "min": [
        0.002322554588317871,
        0.00438690185546875
      ],
      "type": "VEC2"
    },
    {
      "bufferView": 11,
      "componentType": 5123,
      "count": 12,
      "max": [
        7
      ],
      "min": [
        0
      ],
      "type": "SCALAR"
    },
    {
      "bufferView": 12,
      "componentType": 5126,
      "count": 74,
      "max": [
        1,
        1,
        1
      ],
      "min": [
        -1,
        -1,
        -1
      ],
      "type": "VEC3"
    },
    {
      "bufferView": 13,
      "componentType": 5126,
      "count": 74,
      "max": [
        0.9366589784622192,
        2.164846420288086,
        2.299999952316284
      ],
      "min": [
        -3.849656105041504,
        -2.527822494506836,
        0
      ],
      "type": "VEC3"
    },
    {
      "bufferView": 14,
      "componentType": 5126,
      "count": 74,
      "max": [
        0.875,
        1.0009263753890991
      ],
      "min": [
        0.00047901272773742676,
        0
      ],
      "type": "VEC2"
    },
    {
      "bufferView": 15,
      "componentType": 5123,
      "count": 132,
      "max": [
        73
      ],
      "min": [
        0
      ],
      "type": "SCALAR"
    }
  ],
  "materials": [
    {
      "pbrMetallicRoughness": {
        "metallicFactor": 0,
        "roughnessFactor": 1,
        "baseColorTexture": {
          "index": 0
        }
      },
      "name": "Material__31",
      "extras": {
        "gltfExtensions": {}
      }
    },
    {
      "pbrMetallicRoughness": {
        "metallicFactor": 0,
        "roughnessFactor": 1,
        "baseColorTexture": {
          "index": 1
        }
      },
      "name": "Material__30",
      "extras": {
        "gltfExtensions": {}
      }
    },
    {
      "pbrMetallicRoughness": {
        "metallicFactor": 0,
        "roughnessFactor": 1,
        "baseColorTexture": {
          "index": 2
        }
      },
      "name": "Material__144",
      "extras": {
        "gltfExtensions": {}
      }
    },
    {
      "pbrMetallicRoughness": {
        "metallicFactor": 0,
        "roughnessFactor": 1,
        "baseColorTexture": {
          "index": 3
        }
      },
      "name": "Material__54",
      "extras": {
        "gltfExtensions": {}
      }
    }
  ],
  "textures": [
    {
      "sampler": 0,
      "source": 0,
      "name": "smd_2.jpg"
    },
    {
      "sampler": 1,
      "source": 1,
      "name": "smd_1.jpg"
    },
    {
      "sampler": 2,
      "source": 2,
      "name": "smd_4_f_tga_f_png.jpg"
    },
    {
      "sampler": 3,
      "source": 3,
      "name": "smd_3.jpg"
    }
  ],
  "samplers": [
    {
      "magFilter": 9729,
      "minFilter": 9987,
      "wrapS": 10497,
      "wrapT": 10497
    },
    {
      "magFilter": 9729,
      "minFilter": 9987,
      "wrapS": 10497,
      "wrapT": 10497
    },
    {
      "magFilter": 9729,
      "minFilter": 9987,
      "wrapS": 10497,
      "wrapT": 10497
    },
    {
      "magFilter": 9729,
      "minFilter": 9987,
      "wrapS": 10497,
      "wrapT": 10497
    }
  ],
  "images": [
    {
      "mimeType": "image/png",
      "uri": "data:image/png;base64,"
    },
    {
      "mimeType": "image/png",
      "uri": "data:image/png;base64,"
    },
    {
      "mimeType": "image/png",
      "uri": "data:image/png;base64,"
    },
    {
      "mimeType": "image/png",
      "uri": "data:image/png;base64,"
    }
  ],
  "meshes": [
    {
      "primitives": [
        {
          "mode": 4,
          "attributes": {
            "NORMAL": 0,
            "POSITION": 1,
            "TEXCOORD_0": 2
          },
          "extras": {
            "$cacheKey": "https://model.3dmomoda.com/models/03597271F0DD491DAC7382F0A8C50DA4/0/gltf/true"
          },
          "indices": 3,
          "material": 0
        }
      ]
    },
    {
      "primitives": [
        {
          "mode": 4,
          "attributes": {
            "NORMAL": 4,
            "POSITION": 5,
            "TEXCOORD_0": 6
          },
          "indices": 7,
          "material": 1
        }
      ]
    },
    {
      "primitives": [
        {
          "mode": 4,
          "attributes": {
            "NORMAL": 8,
            "POSITION": 9,
            "TEXCOORD_0": 10
          },
          "indices": 11,
          "material": 2
        }
      ]
    },
    {
      "primitives": [
        {
          "mode": 4,
          "attributes": {
            "NORMAL": 12,
            "POSITION": 13,
            "TEXCOORD_0": 14
          },
          "indices": 15,
          "material": 3
        }
      ]
    }
  ]
}