{
  "asset": {
    "version": "2.0",
    "generator": "GLTFExporter"
  },
  "scenes": [
    {
      "name": "Root Scene",
      "nodes": [
        1
      ]
    }
  ],
  "scene": 0,
  "nodes": [
    {
      "matrix": [
        0.545836985111237,
        0,
        0,
        0,
        0,
        0.5458369851112365,
        2.385929239745971e-8,
        0,
        0,
        -2.385929239745971e-8,
        0.5458369851112365,
        0,
        0,
        0.254672735929489,
        -0.022945886477828,
        1
      ],
      "name": "Cylinder001",
      "extras": {
        "name": "Cylinder001"
      },
      "mesh": 0
    },
    {
      "name": "RootNode",
      "extras": {
        "name": "RootNode"
      },
      "children": [
        0
      ]
    }
  ],
  "bufferViews": [
    {
      "buffer": 0,
      "byteOffset": 0,
      "byteLength": 1272,
      "target": 34962,
      "byteStride": 12
    },
    {
      "buffer": 0,
      "byteOffset": 1272,
      "byteLength": 1272,
      "target": 34962,
      "byteStride": 12
    },
    {
      "buffer": 0,
      "byteOffset": 2544,
      "byteLength": 848,
      "target": 34962,
      "byteStride": 8
    },
    {
      "buffer": 0,
      "byteOffset": 3392,
      "byteLength": 600,
      "target": 34963
    }
  ],
  "buffers": [
    {
      "byteLength": 3992,
      "uri": "data:application/octet-stream;base64,"
    }
  ],
  "accessors": [
    {
      "bufferView": 0,
      "componentType": 5126,
      "count": 106,
      "max": [
        1,
        0.9927088618278503,
        1
      ],
      "min": [
        -1,
        -0.9927089810371399,
        -1
      ],
      "type": "VEC3"
    },
    {
      "bufferView": 1,
      "componentType": 5126,
      "count": 106,
      "max": [
        0.4699999988079071,
        0.46657317876815796,
        0.07999999821186066
      ],
      "min": [
        -0.4699999988079071,
        -0.46657320857048035,
        0.0103759765625
      ],
      "type": "VEC3"
    },
    {
      "bufferView": 2,
      "componentType": 5126,
      "count": 106,
      "max": [
        0.9385485053062439,
        0.9302337765693665
      ],
      "min": [
        0.06494925171136856,
        0.06859487295150757
      ],
      "type": "VEC2"
    },
    {
      "bufferView": 3,
      "componentType": 5123,
      "count": 300,
      "max": [
        105
      ],
      "min": [
        0
      ],
      "type": "SCALAR"
    }
  ],
  "materials": [
    {
      "pbrMetallicRoughness": {
        "metallicFactor": 0,
        "roughnessFactor": 1,
        "baseColorTexture": {
          "index": 0
        }
      },
      "name": "Material__25",
      "extras": {
        "gltfExtensions": {}
      }
    }
  ],
  "textures": [
    {
      "sampler": 0,
      "source": 0,
      "name": "smd_1_f_png.jpg"
    }
  ],
  "samplers": [
    {
      "magFilter": 9729,
      "minFilter": 9987,
      "wrapS": 10497,
      "wrapT": 10497
    }
  ],
  "images": [
    {
      "mimeType": "image/png",
      "uri": "data:image/png;base64,"
    }
  ],
  "meshes": [
    {
      "primitives": [
        {
          "mode": 4,
          "attributes": {
            "NORMAL": 0,
            "POSITION": 1,
            "TEXCOORD_0": 2
          },
          "extras": {
            "$cacheKey": "https://model.3dmomoda.com/models/0cc23089c9514c768791368a6e30b9ff/0/gltf/true"
          },
          "indices": 3,
          "material": 0
        }
      ]
    }
  ]
}