{
  "asset": {
    "version": "2.0",
    "generator": "GLTFExporter"
  },
  "scenes": [
    {
      "name": "Root Scene",
      "nodes": [
        1
      ]
    }
  ],
  "scene": 0,
  "nodes": [
    {
      "matrix": [
        1,
        0,
        0,
        0,
        0,
        3.422854299994782e-8,
        -0.999999965771457,
        0,
        0,
        0.999999965771457,
        3.422854299994782e-8,
        0,
        -9.4066017197747e-8,
        0.324416935443878,
        0.0458933562040329,
        1
      ],
      "name": "Object001",
      "extras": {
        "name": "Object001"
      },
      "mesh": 0
    },
    {
      "name": "RootNode",
      "extras": {
        "name": "RootNode"
      },
      "children": [
        0
      ]
    }
  ],
  "bufferViews": [
    {
      "buffer": 0,
      "byteOffset": 0,
      "byteLength": 1008,
      "target": 34962,
      "byteStride": 12
    },
    {
      "buffer": 0,
      "byteOffset": 1008,
      "byteLength": 1008,
      "target": 34962,
      "byteStride": 12
    },
    {
      "buffer": 0,
      "byteOffset": 2016,
      "byteLength": 672,
      "target": 34962,
      "byteStride": 8
    },
    {
      "buffer": 0,
      "byteOffset": 2688,
      "byteLength": 672,
      "target": 34962,
      "byteStride": 8
    },
    {
      "buffer": 0,
      "byteOffset": 3360,
      "byteLength": 288,
      "target": 34963
    }
  ],
  "buffers": [
    {
      "byteLength": 3648,
      "uri": "data:application/octet-stream;base64,"
    }
  ],
  "accessors": [
    {
      "bufferView": 0,
      "componentType": 5126,
      "count": 84,
      "max": [
        2.2871498117638112e-7,
        0.9720621705055237,
        0.565372884273529
      ],
      "min": [
        -2.2871499538723583e-7,
        -0.9720621705055237,
        -0.565372884273529
      ],
      "type": "VEC3"
    },
    {
      "bufferView": 1,
      "componentType": 5126,
      "count": 84,
      "max": [
        0.3000001013278961,
        0.2165227085351944,
        0.32440799474716187
      ],
      "min": [
        -0.30000007152557373,
        -0.12406982481479645,
        -0.32440802454948425
      ],
      "type": "VEC3"
    },
    {
      "bufferView": 2,
      "componentType": 5126,
      "count": 84,
      "max": [
        4.926305770874023,
        1.0041824579238892
      ],
      "min": [
        -0.09578140079975128,
        -2.77481746673584
      ],
      "type": "VEC2"
    },
    {
      "bufferView": 3,
      "componentType": 5126,
      "count": 84,
      "max": [
        4.926305770874023,
        1.0041824579238892
      ],
      "min": [
        -0.09578140079975128,
        -2.77481746673584
      ],
      "type": "VEC2"
    },
    {
      "bufferView": 4,
      "componentType": 5123,
      "count": 144,
      "max": [
        83
      ],
      "min": [
        0
      ],
      "type": "SCALAR"
    }
  ],
  "materials": [
    {
      "pbrMetallicRoughness": {
        "metallicFactor": 0,
        "roughnessFactor": 1,
        "baseColorTexture": {
          "index": 0
        }
      },
      "emissiveTexture": {
        "index": 0
      },
      "alphaMode": "BLEND",
      "name": "Standard_20_alpha",
      "extras": {
        "gltfExtensions": {
          "sceneBlend": "Additive",
          "baseColorTexture": {
            "textureExtensions": [
              {
                "index": 0,
                "texCoord": 0,
                "extensions": {
                  "scrollAnim": [
                    0,
                    -1.2
                  ]
                }
              }
            ]
          },
          "emissiveTexture": {
            "textureExtensions": [
              {
                "index": 0,
                "texCoord": 0,
                "extensions": {
                  "scrollAnim": [
                    0,
                    -1.2
                  ]
                }
              }
            ]
          }
        }
      }
    }
  ],
  "textures": [
    {
      "sampler": 0,
      "source": 0,
      "name": "smd_1_f_tga.png"
    }
  ],
  "samplers": [
    {
      "magFilter": 9729,
      "minFilter": 9987,
      "wrapS": 10497,
      "wrapT": 10497
    }
  ],
  "images": [
    {
      "mimeType": "image/png",
      "uri": "data:image/png;base64,"
    }
  ],
  "meshes": [
    {
      "primitives": [
        {
          "mode": 4,
          "attributes": {
            "NORMAL": 0,
            "POSITION": 1,
            "TEXCOORD_0": 2,
            "TEXCOORD_1": 3
          },
          "extras": {
            "$cacheKey": "https://model.3dmomoda.com/models/1a2f13e28bb147ea9aecc93eebae9102/0/gltf/true"
          },
          "indices": 4,
          "material": 0
        }
      ]
    }
  ]
}