{
  "asset": {
    "version": "2.0",
    "generator": "GLTFExporter"
  },
  "scenes": [
    {
      "name": "Root Scene",
      "nodes": [
        1
      ]
    }
  ],
  "scene": 0,
  "nodes": [
    {
      "matrix": [
        0.00999999977648258,
        0,
        0,
        0,
        0,
        3.422854223488026e-10,
        -0.009999999434197158,
        0,
        0,
        0.009999999434197158,
        3.422854223488026e-10,
        0,
        0,
        0,
        0,
        1
      ],
      "name": "Lo-常用柱子_01",
      "extras": {
        "name": "Lo-常用柱子_01"
      },
      "mesh": 0
    },
    {
      "name": "RootNode",
      "extras": {
        "name": "RootNode"
      },
      "children": [
        0
      ]
    }
  ],
  "bufferViews": [
    {
      "buffer": 0,
      "byteOffset": 0,
      "byteLength": 2544,
      "target": 34962,
      "byteStride": 12
    },
    {
      "buffer": 0,
      "byteOffset": 2544,
      "byteLength": 2544,
      "target": 34962,
      "byteStride": 12
    },
    {
      "buffer": 0,
      "byteOffset": 5088,
      "byteLength": 1696,
      "target": 34962,
      "byteStride": 8
    },
    {
      "buffer": 0,
      "byteOffset": 6784,
      "byteLength": 660,
      "target": 34963
    }
  ],
  "buffers": [
    {
      "byteLength": 7444,
      "uri": "data:application/octet-stream;base64,"
    }
  ],
  "accessors": [
    {
      "bufferView": 0,
      "componentType": 5126,
      "count": 212,
      "max": [
        1,
        1,
        1
      ],
      "min": [
        -1,
        -1,
        -1
      ],
      "type": "VEC3"
    },
    {
      "bufferView": 1,
      "componentType": 5126,
      "count": 212,
      "max": [
        37.2816162109375,
        37.2816162109375,
        300.0000305175781
      ],
      "min": [
        -37.2816162109375,
        -37.2816162109375,
        0
      ],
      "type": "VEC3"
    },
    {
      "bufferView": 2,
      "componentType": 5126,
      "count": 212,
      "max": [
        0.6106327772140503,
        0.7641661763191223
      ],
      "min": [
        0.011413998901844025,
        0.40290218591690063
      ],
      "type": "VEC2"
    },
    {
      "bufferView": 3,
      "componentType": 5123,
      "count": 330,
      "max": [
        211
      ],
      "min": [
        0
      ],
      "type": "SCALAR"
    }
  ],
  "materials": [
    {
      "pbrMetallicRoughness": {
        "metallicFactor": 0.099999994,
        "roughnessFactor": 1,
        "baseColorTexture": {
          "index": 0
        }
      },
      "name": "Std_NTexture_01_jpg",
      "extras": {
        "gltfExtensions": {}
      }
    }
  ],
  "textures": [
    {
      "sampler": 0,
      "source": 0,
      "name": "smd_1.jpg"
    }
  ],
  "samplers": [
    {
      "magFilter": 9729,
      "minFilter": 9987,
      "wrapS": 10497,
      "wrapT": 10497
    }
  ],
  "images": [
    {
      "mimeType": "image/png",
      "uri": "data:image/png;base64,"
    }
  ],
  "meshes": [
    {
      "primitives": [
        {
          "mode": 4,
          "attributes": {
            "NORMAL": 0,
            "POSITION": 1,
            "TEXCOORD_0": 2
          },
          "extras": {
            "$cacheKey": "https://model.3dmomoda.com/models/1EC7E4A5D8484546A31DABB3CF05E68F/0/gltf/true"
          },
          "indices": 3,
          "material": 0
        }
      ]
    }
  ]
}