{
  "asset": {
    "version": "2.0",
    "generator": "GLTFExporter"
  },
  "scenes": [
    {
      "name": "Root Scene",
      "nodes": [
        3
      ]
    }
  ],
  "scene": 0,
  "nodes": [
    {
      "name": "Lo-金属栅栏围墙_01_0",
      "mesh": 0
    },
    {
      "name": "Lo-金属栅栏围墙_01_1",
      "mesh": 1
    },
    {
      "matrix": [
        0.00999999977648258,
        0,
        0,
        0,
        0,
        3.422854223488026e-10,
        -0.009999999434197158,
        0,
        0,
        0.009999999434197158,
        3.422854223488026e-10,
        0,
        -0.000235906918533146,
        0,
        0,
        1
      ],
      "name": "Lo-金属栅栏围墙_01",
      "extras": {
        "name": "Lo-金属栅栏围墙_01"
      },
      "children": [
        0,
        1
      ]
    },
    {
      "name": "RootNode",
      "extras": {
        "name": "RootNode"
      },
      "children": [
        2
      ]
    }
  ],
  "bufferViews": [
    {
      "buffer": 0,
      "byteOffset": 0,
      "byteLength": 1024,
      "target": 34962,
      "byteStride": 16
    },
    {
      "buffer": 0,
      "byteOffset": 1024,
      "byteLength": 768,
      "target": 34962,
      "byteStride": 12
    },
    {
      "buffer": 0,
      "byteOffset": 1792,
      "byteLength": 768,
      "target": 34962,
      "byteStride": 12
    },
    {
      "buffer": 0,
      "byteOffset": 2560,
      "byteLength": 512,
      "target": 34962,
      "byteStride": 8
    },
    {
      "buffer": 0,
      "byteOffset": 3072,
      "byteLength": 512,
      "target": 34962,
      "byteStride": 8
    },
    {
      "buffer": 0,
      "byteOffset": 3584,
      "byteLength": 256,
      "target": 34962,
      "byteStride": 4
    },
    {
      "buffer": 0,
      "byteOffset": 3840,
      "byteLength": 204,
      "target": 34963
    },
    {
      "buffer": 0,
      "byteOffset": 4044,
      "byteLength": 576,
      "target": 34962,
      "byteStride": 16
    },
    {
      "buffer": 0,
      "byteOffset": 4620,
      "byteLength": 432,
      "target": 34962,
      "byteStride": 12
    },
    {
      "buffer": 0,
      "byteOffset": 5052,
      "byteLength": 432,
      "target": 34962,
      "byteStride": 12
    },
    {
      "buffer": 0,
      "byteOffset": 5484,
      "byteLength": 288,
      "target": 34962,
      "byteStride": 8
    },
    {
      "buffer": 0,
      "byteOffset": 5772,
      "byteLength": 288,
      "target": 34962,
      "byteStride": 8
    },
    {
      "buffer": 0,
      "byteOffset": 6060,
      "byteLength": 144,
      "target": 34962,
      "byteStride": 4
    },
    {
      "buffer": 0,
      "byteOffset": 6204,
      "byteLength": 108,
      "target": 34963
    }
  ],
  "buffers": [
    {
      "byteLength": 6312,
      "uri": "data:application/octet-stream;base64,"
    }
  ],
  "accessors": [
    {
      "bufferView": 0,
      "componentType": 5126,
      "count": 64,
      "max": [
        1,
        1,
        1,
        1
      ],
      "min": [
        1,
        1,
        1,
        1
      ],
      "type": "VEC4"
    },
    {
      "bufferView": 1,
      "componentType": 5126,
      "count": 64,
      "max": [
        1,
        1,
        1
      ],
      "min": [
        -1,
        -1,
        0
      ],
      "type": "VEC3"
    },
    {
      "bufferView": 2,
      "componentType": 5126,
      "count": 64,
      "max": [
        190.25137329101562,
        16.360610961914062,
        204.49478149414062
      ],
      "min": [
        -190.35494995117188,
        -16.359928131103516,
        0
      ],
      "type": "VEC3"
    },
    {
      "bufferView": 3,
      "componentType": 5126,
      "count": 64,
      "max": [
        0.9220256805419922,
        1.759570598602295
      ],
      "min": [
        0.0005385872791521251,
        0.0005639791488647461
      ],
      "type": "VEC2"
    },
    {
      "bufferView": 4,
      "componentType": 5126,
      "count": 64,
      "max": [
        0.9220256805419922,
        1.759570598602295
      ],
      "min": [
        0.0005385872791521251,
        0.0005639791488647461
      ],
      "type": "VEC2"
    },
    {
      "bufferView": 5,
      "componentType": 5126,
      "count": 64,
      "max": [
        1
      ],
      "min": [
        1
      ],
      "type": "SCALAR"
    },
    {
      "bufferView": 6,
      "componentType": 5123,
      "count": 102,
      "max": [
        63
      ],
      "min": [
        0
      ],
      "type": "SCALAR"
    },
    {
      "bufferView": 7,
      "componentType": 5126,
      "count": 36,
      "max": [
        1,
        1,
        1,
        1
      ],
      "min": [
        1,
        1,
        1,
        1
      ],
      "type": "VEC4"
    },
    {
      "bufferView": 8,
      "componentType": 5126,
      "count": 36,
      "max": [
        1.631167663163069e-7,
        1,
        0.000004768310645886231
      ],
      "min": [
        -1.6406252711931302e-7,
        -1,
        -0.000004768311100633582
      ],
      "type": "VEC3"
    },
    {
      "bufferView": 9,
      "componentType": 5126,
      "count": 36,
      "max": [
        190.25137329101562,
        0.20410142838954926,
        196.31500244140625
      ],
      "min": [
        -190.35494995117188,
        0.20341534912586212,
        65.43833923339844
      ],
      "type": "VEC3"
    },
    {
      "bufferView": 10,
      "componentType": 5126,
      "count": 36,
      "max": [
        0.24928878247737885,
        0.24846428632736206
      ],
      "min": [
        0.0001494186872150749,
        0.0002899765968322754
      ],
      "type": "VEC2"
    },
    {
      "bufferView": 11,
      "componentType": 5126,
      "count": 36,
      "max": [
        0.24928878247737885,
        0.24846428632736206
      ],
      "min": [
        0.0001494186872150749,
        0.0002899765968322754
      ],
      "type": "VEC2"
    },
    {
      "bufferView": 12,
      "componentType": 5126,
      "count": 36,
      "max": [
        1
      ],
      "min": [
        1
      ],
      "type": "SCALAR"
    },
    {
      "bufferView": 13,
      "componentType": 5123,
      "count": 54,
      "max": [
        35
      ],
      "min": [
        0
      ],
      "type": "SCALAR"
    }
  ],
  "materials": [
    {
      "pbrMetallicRoughness": {
        "metallicFactor": 0,
        "roughnessFactor": 1,
        "baseColorTexture": {
          "index": 0
        }
      },
      "name": "Std_Texture_01.jpg",
      "extras": {
        "gltfExtensions": {}
      }
    },
    {
      "pbrMetallicRoughness": {
        "metallicFactor": 0,
        "roughnessFactor": 1,
        "baseColorTexture": {
          "index": 1
        }
      },
      "alphaMode": "BLEND",
      "name": "Std_Fence_01.tga_alpha",
      "extras": {
        "gltfExtensions": {}
      }
    }
  ],
  "textures": [
    {
      "sampler": 0,
      "source": 0,
      "name": "smd_2.jpg"
    },
    {
      "sampler": 1,
      "source": 1,
      "name": "smd_1_f_tga.png"
    }
  ],
  "samplers": [
    {
      "magFilter": 9729,
      "minFilter": 9987,
      "wrapS": 10497,
      "wrapT": 10497
    },
    {
      "magFilter": 9729,
      "minFilter": 9987,
      "wrapS": 10497,
      "wrapT": 10497
    }
  ],
  "images": [
    {
      "mimeType": "image/png",
      "uri": "data:image/png;base64,"
    },
    {
      "mimeType": "image/png",
      "uri": "data:image/png;base64,"
    }
  ],
  "meshes": [
    {
      "primitives": [
        {
          "mode": 4,
          "attributes": {
            "COLOR_0": 0,
            "NORMAL": 1,
            "POSITION": 2,
            "TEXCOORD_0": 3,
            "TEXCOORD_1": 4,
            "_ALPHAINDEX": 5
          },
          "extras": {
            "$cacheKey": "https://model.3dmomoda.com/models/41974EEFC2D14D02BB5E330286171C78/0/gltf/true"
          },
          "indices": 6,
          "material": 0
        }
      ]
    },
    {
      "primitives": [
        {
          "mode": 4,
          "attributes": {
            "COLOR_0": 7,
            "NORMAL": 8,
            "POSITION": 9,
            "TEXCOORD_0": 10,
            "TEXCOORD_1": 11,
            "_ALPHAINDEX": 12
          },
          "indices": 13,
          "material": 1
        }
      ]
    }
  ]
}