{
  "asset": {
    "version": "2.0",
    "generator": "GLTFExporter"
  },
  "scenes": [
    {
      "name": "Root Scene",
      "nodes": [
        5
      ]
    }
  ],
  "scene": 0,
  "nodes": [
    {
      "name": "objpCube3_0",
      "mesh": 0
    },
    {
      "name": "objpCube3_1",
      "mesh": 1
    },
    {
      "name": "objpCube3_2",
      "mesh": 2
    },
    {
      "name": "objpCube3_3",
      "mesh": 3
    },
    {
      "matrix": [
        1,
        0,
        0,
        0,
        0,
        3.422854299994782e-8,
        -0.999999965771457,
        0,
        0,
        0.999999965771457,
        3.422854299994782e-8,
        0,
        0,
        0,
        0,
        1
      ],
      "name": "objpCube3",
      "extras": {
        "name": "objpCube3"
      },
      "children": [
        0,
        1,
        2,
        3
      ]
    },
    {
      "name": "RootNode",
      "extras": {
        "name": "RootNode"
      },
      "children": [
        4
      ]
    }
  ],
  "bufferViews": [
    {
      "buffer": 0,
      "byteOffset": 0,
      "byteLength": 4968,
      "target": 34962,
      "byteStride": 12
    },
    {
      "buffer": 0,
      "byteOffset": 4968,
      "byteLength": 4968,
      "target": 34962,
      "byteStride": 12
    },
    {
      "buffer": 0,
      "byteOffset": 9936,
      "byteLength": 3312,
      "target": 34962,
      "byteStride": 8
    },
    {
      "buffer": 0,
      "byteOffset": 13248,
      "byteLength": 3312,
      "target": 34962,
      "byteStride": 8
    },
    {
      "buffer": 0,
      "byteOffset": 16560,
      "byteLength": 1632,
      "target": 34963
    },
    {
      "buffer": 0,
      "byteOffset": 18192,
      "byteLength": 288,
      "target": 34962,
      "byteStride": 12
    },
    {
      "buffer": 0,
      "byteOffset": 18480,
      "byteLength": 288,
      "target": 34962,
      "byteStride": 12
    },
    {
      "buffer": 0,
      "byteOffset": 18768,
      "byteLength": 192,
      "target": 34962,
      "byteStride": 8
    },
    {
      "buffer": 0,
      "byteOffset": 18960,
      "byteLength": 192,
      "target": 34962,
      "byteStride": 8
    },
    {
      "buffer": 0,
      "byteOffset": 19152,
      "byteLength": 72,
      "target": 34963
    },
    {
      "buffer": 0,
      "byteOffset": 19224,
      "byteLength": 144,
      "target": 34962,
      "byteStride": 12
    },
    {
      "buffer": 0,
      "byteOffset": 19368,
      "byteLength": 144,
      "target": 34962,
      "byteStride": 12
    },
    {
      "buffer": 0,
      "byteOffset": 19512,
      "byteLength": 96,
      "target": 34962,
      "byteStride": 8
    },
    {
      "buffer": 0,
      "byteOffset": 19608,
      "byteLength": 96,
      "target": 34962,
      "byteStride": 8
    },
    {
      "buffer": 0,
      "byteOffset": 19704,
      "byteLength": 48,
      "target": 34963
    },
    {
      "buffer": 0,
      "byteOffset": 19752,
      "byteLength": 1020,
      "target": 34962,
      "byteStride": 12
    },
    {
      "buffer": 0,
      "byteOffset": 20772,
      "byteLength": 1020,
      "target": 34962,
      "byteStride": 12
    },
    {
      "buffer": 0,
      "byteOffset": 21792,
      "byteLength": 680,
      "target": 34962,
      "byteStride": 8
    },
    {
      "buffer": 0,
      "byteOffset": 22472,
      "byteLength": 680,
      "target": 34962,
      "byteStride": 8
    },
    {
      "buffer": 0,
      "byteOffset": 23152,
      "byteLength": 408,
      "target": 34963
    }
  ],
  "buffers": [
    {
      "byteLength": 23560,
      "uri": "data:application/octet-stream;base64,"
    }
  ],
  "accessors": [
    {
      "bufferView": 0,
      "componentType": 5126,
      "count": 414,
      "max": [
        1,
        1,
        1
      ],
      "min": [
        -1,
        -1,
        -1
      ],
      "type": "VEC3"
    },
    {
      "bufferView": 1,
      "componentType": 5126,
      "count": 414,
      "max": [
        1.9833093881607056,
        3.05413818359375,
        2.9398677349090576
      ],
      "min": [
        -2.003458261489868,
        -1.989003300666809,
        0.0007099999929778278
      ],
      "type": "VEC3"
    },
    {
      "bufferView": 2,
      "componentType": 5126,
      "count": 414,
      "max": [
        0.4912436008453369,
        0.694230318069458
      ],
      "min": [
        0.4897245466709137,
        0.6927112936973572
      ],
      "type": "VEC2"
    },
    {
      "bufferView": 3,
      "componentType": 5126,
      "count": 414,
      "max": [
        0.9947830438613892,
        0.9990000128746033
      ],
      "min": [
        0.047732751816511154,
        0.0074729323387146
      ],
      "type": "VEC2"
    },
    {
      "bufferView": 4,
      "componentType": 5123,
      "count": 816,
      "max": [
        413
      ],
      "min": [
        0
      ],
      "type": "SCALAR"
    },
    {
      "bufferView": 5,
      "componentType": 5126,
      "count": 24,
      "max": [
        1,
        1,
        0
      ],
      "min": [
        -1,
        -1,
        0
      ],
      "type": "VEC3"
    },
    {
      "bufferView": 6,
      "componentType": 5126,
      "count": 24,
      "max": [
        1.6420224905014038,
        2.947359800338745,
        2.5851967334747314
      ],
      "min": [
        -1.6621711254119873,
        -1.8822252750396729,
        0.8959589004516602
      ],
      "type": "VEC3"
    },
    {
      "bufferView": 7,
      "componentType": 5126,
      "count": 24,
      "max": [
        0.9962394833564758,
        0.997747540473938
      ],
      "min": [
        0.0020096302032470703,
        0.0011796951293945312
      ],
      "type": "VEC2"
    },
    {
      "bufferView": 8,
      "componentType": 5126,
      "count": 24,
      "max": [
        0.9419268369674683,
        0.2746424078941345
      ],
      "min": [
        0.047732748091220856,
        0.0009999871253967285
      ],
      "type": "VEC2"
    },
    {
      "bufferView": 9,
      "componentType": 5123,
      "count": 36,
      "max": [
        23
      ],
      "min": [
        0
      ],
      "type": "SCALAR"
    },
    {
      "bufferView": 10,
      "componentType": 5126,
      "count": 12,
      "max": [
        0,
        1,
        0
      ],
      "min": [
        0,
        -1,
        0
      ],
      "type": "VEC3"
    },
    {
      "bufferView": 11,
      "componentType": 5126,
      "count": 12,
      "max": [
        -0.2750495374202728,
        2.9473602771759033,
        2.5851967334747314
      ],
      "min": [
        -1.1609333753585815,
        -1.8822250366210938,
        0.0007099999929778278
      ],
      "type": "VEC3"
    },
    {
      "bufferView": 12,
      "componentType": 5126,
      "count": 12,
      "max": [
        1.0231003761291504,
        1.0000128746032715
      ],
      "min": [
        -0.0409829244017601,
        -0.0003457069396972656
      ],
      "type": "VEC2"
    },
    {
      "bufferView": 13,
      "componentType": 5126,
      "count": 12,
      "max": [
        0.43091490864753723,
        0.17183029651641846
      ],
      "min": [
        0.04773274436593056,
        0.1077650785446167
      ],
      "type": "VEC2"
    },
    {
      "bufferView": 14,
      "componentType": 5123,
      "count": 24,
      "max": [
        11
      ],
      "min": [
        0
      ],
      "type": "SCALAR"
    },
    {
      "bufferView": 15,
      "componentType": 5126,
      "count": 85,
      "max": [
        1,
        1,
        1
      ],
      "min": [
        -1,
        -1,
        -1
      ],
      "type": "VEC3"
    },
    {
      "bufferView": 16,
      "componentType": 5126,
      "count": 85,
      "max": [
        2.40000057220459,
        3.500000476837158,
        3.3647608757019043
      ],
      "min": [
        -2.40000057220459,
        -3.500000476837158,
        2.8047850131988525
      ],
      "type": "VEC3"
    },
    {
      "bufferView": 17,
      "componentType": 5126,
      "count": 85,
      "max": [
        1,
        1
      ],
      "min": [
        0,
        0.3516319990158081
      ],
      "type": "VEC2"
    },
    {
      "bufferView": 18,
      "componentType": 5126,
      "count": 85,
      "max": [
        0.8814825415611267,
        0.9990000128746033
      ],
      "min": [
        0.0010000000474974513,
        0.06771481037139893
      ],
      "type": "VEC2"
    },
    {
      "bufferView": 19,
      "componentType": 5123,
      "count": 204,
      "max": [
        84
      ],
      "min": [
        0
      ],
      "type": "SCALAR"
    }
  ],
  "materials": [
    {
      "pbrMetallicRoughness": {
        "metallicFactor": 0,
        "roughnessFactor": 1,
        "baseColorTexture": {
          "index": 0
        }
      },
      "occlusionTexture": {
        "index": 1,
        "texCoord": 1
      },
      "doubleSided": true,
      "name": "Material__66传达室LightingMap.bmp",
      "extras": {
        "gltfExtensions": {}
      }
    },
    {
      "pbrMetallicRoughness": {
        "metallicFactor": 0,
        "roughnessFactor": 1,
        "baseColorTexture": {
          "index": 2
        }
      },
      "occlusionTexture": {
        "index": 1,
        "texCoord": 1
      },
      "doubleSided": true,
      "name": "Material__41传达室LightingMap.bmp",
      "extras": {
        "gltfExtensions": {}
      }
    },
    {
      "pbrMetallicRoughness": {
        "metallicFactor": 0,
        "roughnessFactor": 1,
        "baseColorTexture": {
          "index": 3
        }
      },
      "occlusionTexture": {
        "index": 1,
        "texCoord": 1
      },
      "doubleSided": true,
      "name": "Material__53传达室LightingMap.bmp",
      "extras": {
        "gltfExtensions": {}
      }
    },
    {
      "pbrMetallicRoughness": {
        "metallicFactor": 0,
        "roughnessFactor": 1,
        "baseColorTexture": {
          "index": 4
        }
      },
      "occlusionTexture": {
        "index": 1,
        "texCoord": 1
      },
      "name": "Material__29传达室LightingMap.bmp",
      "extras": {
        "gltfExtensions": {}
      }
    }
  ],
  "textures": [
    {
      "sampler": 0,
      "source": 0,
      "name": "smd_4.jpg"
    },
    {
      "sampler": 1,
      "source": 1,
      "name": "传达室LightingMap_f_bmp.jpg"
    },
    {
      "sampler": 2,
      "source": 2,
      "name": "smd_2_f_png.jpg"
    },
    {
      "sampler": 3,
      "source": 3,
      "name": "smd_3_f_png.jpg"
    },
    {
      "sampler": 4,
      "source": 4,
      "name": "smd_1.jpg"
    }
  ],
  "samplers": [
    {
      "magFilter": 9729,
      "minFilter": 9987,
      "wrapS": 10497,
      "wrapT": 10497
    },
    {
      "magFilter": 9729,
      "minFilter": 9987,
      "wrapS": 10497,
      "wrapT": 10497
    },
    {
      "magFilter": 9729,
      "minFilter": 9987,
      "wrapS": 10497,
      "wrapT": 10497
    },
    {
      "magFilter": 9729,
      "minFilter": 9987,
      "wrapS": 10497,
      "wrapT": 10497
    },
    {
      "magFilter": 9729,
      "minFilter": 9987,
      "wrapS": 10497,
      "wrapT": 10497
    }
  ],
  "images": [
    {
      "mimeType": "image/png",
      "uri": "data:image/png;base64,"
    },
    {
      "mimeType": "image/png",
      "uri": "data:image/png;base64,"
    },
    {
      "mimeType": "image/png",
      "uri": "data:image/png;base64,"
    },
    {
      "mimeType": "image/png",
      "uri": "data:image/png;base64,"
    },
    {
      "mimeType": "image/png",
      "uri": "data:image/png;base64,"
    }
  ],
  "meshes": [
    {
      "primitives": [
        {
          "mode": 4,
          "attributes": {
            "NORMAL": 0,
            "POSITION": 1,
            "TEXCOORD_0": 2,
            "TEXCOORD_1": 3
          },
          "extras": {
            "$cacheKey": "https://model.3dmomoda.com/models/41C1820006524FF593F2F48D8CB92CF3/0/gltf/true"
          },
          "indices": 4,
          "material": 0
        }
      ]
    },
    {
      "primitives": [
        {
          "mode": 4,
          "attributes": {
            "NORMAL": 5,
            "POSITION": 6,
            "TEXCOORD_0": 7,
            "TEXCOORD_1": 8
          },
          "indices": 9,
          "material": 1
        }
      ]
    },
    {
      "primitives": [
        {
          "mode": 4,
          "attributes": {
            "NORMAL": 10,
            "POSITION": 11,
            "TEXCOORD_0": 12,
            "TEXCOORD_1": 13
          },
          "indices": 14,
          "material": 2
        }
      ]
    },
    {
      "primitives": [
        {
          "mode": 4,
          "attributes": {
            "NORMAL": 15,
            "POSITION": 16,
            "TEXCOORD_0": 17,
            "TEXCOORD_1": 18
          },
          "indices": 19,
          "material": 3
        }
      ]
    }
  ]
}