{
  "asset": {
    "version": "2.0",
    "generator": "GLTFExporter"
  },
  "scenes": [
    {
      "name": "Root Scene",
      "nodes": [
        12
      ]
    }
  ],
  "scene": 0,
  "nodes": [
    {
      "matrix": [
        0.0542149990797043,
        0,
        0,
        0,
        0,
        1.85570042724179e-9,
        -0.05421499722400387,
        0,
        0,
        0.05421499722400387,
        1.85570042724179e-9,
        0,
        -0.1500553637743,
        1.77257084846497,
        -0.171745344996452,
        1
      ],
      "name": "Lo-电源PORT_01",
      "extras": {
        "name": "Lo-电源PORT_01"
      }
    },
    {
      "matrix": [
        0.0542149990797043,
        0,
        0,
        0,
        0,
        1.85570042724179e-9,
        -0.05421499722400387,
        0,
        0,
        0.05421499722400387,
        1.85570042724179e-9,
        0,
        0.150055348873138,
        1.77257084846497,
        -0.171745344996452,
        1
      ],
      "name": "Lo-电源PORT_02",
      "extras": {
        "name": "Lo-电源PORT_02"
      }
    },
    {
      "matrix": [
        0.0542149990797043,
        0,
        0,
        0,
        0,
        1.85570042724179e-9,
        -0.05421499722400387,
        0,
        0,
        0.05421499722400387,
        1.85570042724179e-9,
        0,
        0.150055348873138,
        1.77257084846497,
        -0.103167206048965,
        1
      ],
      "name": "Lo-电源PORT_03",
      "extras": {
        "name": "Lo-电源PORT_03"
      }
    },
    {
      "matrix": [
        0.0542149990797043,
        0,
        0,
        0,
        0,
        1.85570042724179e-9,
        -0.05421499722400387,
        0,
        0,
        0.05421499722400387,
        1.85570042724179e-9,
        0,
        -0.1500553637743,
        1.77257084846497,
        -0.103167206048965,
        1
      ],
      "name": "Lo-电源PORT_04",
      "extras": {
        "name": "Lo-电源PORT_04"
      }
    },
    {
      "matrix": [
        0.0542149990797043,
        0,
        0,
        0,
        0,
        1.85570042724179e-9,
        -0.05421499722400387,
        0,
        0,
        0.05421499722400387,
        1.85570042724179e-9,
        0,
        0.150055348873138,
        1.77257084846497,
        -0.0345890410244465,
        1
      ],
      "name": "Lo-电源PORT_05",
      "extras": {
        "name": "Lo-电源PORT_05"
      }
    },
    {
      "matrix": [
        0.0542149990797043,
        0,
        0,
        0,
        0,
        1.85570042724179e-9,
        -0.05421499722400387,
        0,
        0,
        0.05421499722400387,
        1.85570042724179e-9,
        0,
        -0.1500553637743,
        1.77257084846497,
        -0.0345890410244465,
        1
      ],
      "name": "Lo-电源PORT_06",
      "extras": {
        "name": "Lo-电源PORT_06"
      }
    },
    {
      "matrix": [
        0.0542149990797043,
        0,
        0,
        0,
        0,
        1.85570042724179e-9,
        -0.05421499722400387,
        0,
        0,
        0.05421499722400387,
        1.85570042724179e-9,
        0,
        0.150055348873138,
        1.77257084846497,
        0.0339891165494919,
        1
      ],
      "name": "Lo-电源PORT_07",
      "extras": {
        "name": "Lo-电源PORT_07"
      }
    },
    {
      "matrix": [
        0.0542149990797043,
        0,
        0,
        0,
        0,
        1.85570042724179e-9,
        -0.05421499722400387,
        0,
        0,
        0.05421499722400387,
        1.85570042724179e-9,
        0,
        -0.1500553637743,
        1.77257084846497,
        0.0339891165494919,
        1
      ],
      "name": "Lo-电源PORT_08",
      "extras": {
        "name": "Lo-电源PORT_08"
      }
    },
    {
      "matrix": [
        0.0542149990797043,
        0,
        0,
        0,
        0,
        1.85570042724179e-9,
        -0.05421499722400387,
        0,
        0,
        0.05421499722400387,
        1.85570042724179e-9,
        0,
        0.150055348873138,
        1.77257084846497,
        0.102567285299301,
        1
      ],
      "name": "Lo-电源PORT_09",
      "extras": {
        "name": "Lo-电源PORT_09"
      }
    },
    {
      "matrix": [
        0.0542149990797043,
        0,
        0,
        0,
        0,
        1.85570042724179e-9,
        -0.05421499722400387,
        0,
        0,
        0.05421499722400387,
        1.85570042724179e-9,
        0,
        -0.1500553637743,
        1.77257084846497,
        0.102567285299301,
        1
      ],
      "name": "Lo-电源PORT_10",
      "extras": {
        "name": "Lo-电源PORT_10"
      }
    },
    {
      "matrix": [
        0.00999999977648258,
        0,
        0,
        0,
        0,
        0.00999999977648257,
        4.371138730971233e-10,
        0,
        0,
        -4.371138730971233e-10,
        0.00999999977648257,
        0,
        -0.000155220026499592,
        0.752024412155151,
        0.430489987134933,
        1
      ],
      "name": "Lo-PRINT_01",
      "extras": {
        "name": "Lo-PRINT_01"
      },
      "mesh": 0
    },
    {
      "matrix": [
        2.0281591996604406e-9,
        -1.3397010681064097e-17,
        0.009999999434197104,
        0,
        -4.371138739752926e-10,
        0.00999999977648257,
        8.708890049207503e-17,
        0,
        -0.009999999434197096,
        -4.37113873975301e-10,
        2.0281591996604406e-9,
        0,
        0,
        3.52850477725042e-8,
        0,
        1
      ],
      "name": "Lo-BODY_01",
      "extras": {
        "name": "Lo-BODY_01"
      },
      "mesh": 1
    },
    {
      "name": "RootNode",
      "extras": {
        "name": "RootNode"
      },
      "children": [
        0,
        1,
        2,
        3,
        4,
        5,
        6,
        7,
        8,
        9,
        10,
        11
      ]
    }
  ],
  "bufferViews": [
    {
      "buffer": 0,
      "byteOffset": 0,
      "byteLength": 1056,
      "target": 34962,
      "byteStride": 12
    },
    {
      "buffer": 0,
      "byteOffset": 1056,
      "byteLength": 1056,
      "target": 34962,
      "byteStride": 12
    },
    {
      "buffer": 0,
      "byteOffset": 2112,
      "byteLength": 704,
      "target": 34962,
      "byteStride": 8
    },
    {
      "buffer": 0,
      "byteOffset": 2816,
      "byteLength": 704,
      "target": 34962,
      "byteStride": 8
    },
    {
      "buffer": 0,
      "byteOffset": 3520,
      "byteLength": 348,
      "target": 34963
    },
    {
      "buffer": 0,
      "byteOffset": 3868,
      "byteLength": 28128,
      "target": 34962,
      "byteStride": 16
    },
    {
      "buffer": 0,
      "byteOffset": 31996,
      "byteLength": 21096,
      "target": 34962,
      "byteStride": 12
    },
    {
      "buffer": 0,
      "byteOffset": 53092,
      "byteLength": 21096,
      "target": 34962,
      "byteStride": 12
    },
    {
      "buffer": 0,
      "byteOffset": 74188,
      "byteLength": 14064,
      "target": 34962,
      "byteStride": 8
    },
    {
      "buffer": 0,
      "byteOffset": 88252,
      "byteLength": 14064,
      "target": 34962,
      "byteStride": 8
    },
    {
      "buffer": 0,
      "byteOffset": 102316,
      "byteLength": 7032,
      "target": 34962,
      "byteStride": 4
    },
    {
      "buffer": 0,
      "byteOffset": 109348,
      "byteLength": 4824,
      "target": 34963
    }
  ],
  "buffers": [
    {
      "byteLength": 114172,
      "uri": "data:application/octet-stream;base64,"
    }
  ],
  "accessors": [
    {
      "bufferView": 0,
      "componentType": 5126,
      "count": 88,
      "max": [
        1.6244110057073158e-8,
        2.68263903535626e-7,
        1
      ],
      "min": [
        -1.6244023015588027e-8,
        0,
        1
      ],
      "type": "VEC3"
    },
    {
      "bufferView": 1,
      "componentType": 5126,
      "count": 88,
      "max": [
        69.05024719238281,
        67.64662170410156,
        0.7854957580566406
      ],
      "min": [
        -69.05024719238281,
        -67.64662170410156,
        -0.7854995727539062
      ],
      "type": "VEC3"
    },
    {
      "bufferView": 2,
      "componentType": 5126,
      "count": 88,
      "max": [
        1.0117422342300415,
        0.8741663694381714
      ],
      "min": [
        0.012740730307996273,
        -0.0019502639770507812
      ],
      "type": "VEC2"
    },
    {
      "bufferView": 3,
      "componentType": 5126,
      "count": 88,
      "max": [
        1.0117422342300415,
        0.8741663694381714
      ],
      "min": [
        0.012740730307996273,
        -0.0019502639770507812
      ],
      "type": "VEC2"
    },
    {
      "bufferView": 4,
      "componentType": 5123,
      "count": 174,
      "max": [
        87
      ],
      "min": [
        0
      ],
      "type": "SCALAR"
    },
    {
      "bufferView": 5,
      "componentType": 5126,
      "count": 1758,
      "max": [
        1,
        1,
        1,
        1
      ],
      "min": [
        1,
        1,
        1,
        1
      ],
      "type": "VEC4"
    },
    {
      "bufferView": 6,
      "componentType": 5126,
      "count": 1758,
      "max": [
        1,
        1,
        1
      ],
      "min": [
        -1,
        -1,
        -1
      ],
      "type": "VEC3"
    },
    {
      "bufferView": 7,
      "componentType": 5126,
      "count": 1758,
      "max": [
        43.83454895019531,
        190,
        84.00000762939453
      ],
      "min": [
        -43.83454895019531,
        -0.000001164510649687145,
        -84.0000228881836
      ],
      "type": "VEC3"
    },
    {
      "bufferView": 8,
      "componentType": 5126,
      "count": 1758,
      "max": [
        1.0012208223342896,
        0.9903377294540405
      ],
      "min": [
        0.0013704034499824047,
        0.050920844078063965
      ],
      "type": "VEC2"
    },
    {
      "bufferView": 9,
      "componentType": 5126,
      "count": 1758,
      "max": [
        0.982421875,
        1.001953125
      ],
      "min": [
        0,
        0.001953125
      ],
      "type": "VEC2"
    },
    {
      "bufferView": 10,
      "componentType": 5126,
      "count": 1758,
      "max": [
        1
      ],
      "min": [
        1
      ],
      "type": "SCALAR"
    },
    {
      "bufferView": 11,
      "componentType": 5123,
      "count": 2412,
      "max": [
        1757
      ],
      "min": [
        0
      ],
      "type": "SCALAR"
    }
  ],
  "materials": [
    {
      "pbrMetallicRoughness": {
        "metallicFactor": 0.099999994,
        "roughnessFactor": 1,
        "baseColorTexture": {
          "index": 0
        }
      },
      "alphaMode": "BLEND",
      "name": "Std_EATON_POWOR_XPERT_9395_tga_alpha",
      "extras": {
        "gltfExtensions": {}
      }
    },
    {
      "pbrMetallicRoughness": {
        "baseColorFactor": [
          1.1,
          1.1,
          1.1,
          1
        ],
        "metallicFactor": 0.099999994,
        "roughnessFactor": 0.92,
        "baseColorTexture": {
          "index": 1
        }
      },
      "occlusionTexture": {
        "index": 2,
        "texCoord": 1
      },
      "name": "Std_EATON_POWOR_XPERT_9395_jpgTextures_LM.bmp",
      "extras": {
        "gltfExtensions": {}
      }
    }
  ],
  "textures": [
    {
      "sampler": 0,
      "source": 0,
      "name": "smd_1_f_tga.png"
    },
    {
      "sampler": 1,
      "source": 1,
      "name": "smd_2.jpg"
    },
    {
      "sampler": 2,
      "source": 2,
      "name": "Textures_LM_f_bmp.jpg"
    }
  ],
  "samplers": [
    {
      "magFilter": 9729,
      "minFilter": 9987,
      "wrapS": 10497,
      "wrapT": 10497
    },
    {
      "magFilter": 9729,
      "minFilter": 9987,
      "wrapS": 10497,
      "wrapT": 10497
    },
    {
      "magFilter": 9729,
      "minFilter": 9987,
      "wrapS": 10497,
      "wrapT": 10497
    }
  ],
  "images": [
    {
      "mimeType": "image/png",
      "uri": "data:image/png;base64,"
    },
    {
      "mimeType": "image/png",
      "uri": "data:image/png;base64,"
    },
    {
      "mimeType": "image/png",
      "uri": "data:image/png;base64,"
    }
  ],
  "meshes": [
    {
      "primitives": [
        {
          "mode": 4,
          "attributes": {
            "NORMAL": 0,
            "POSITION": 1,
            "TEXCOORD_0": 2,
            "TEXCOORD_1": 3
          },
          "extras": {
            "$cacheKey": "https://model.3dmomoda.com/models/66479A712B314EDE8060C43CC16E362E/0/gltf/true"
          },
          "indices": 4,
          "material": 0
        }
      ]
    },
    {
      "primitives": [
        {
          "mode": 4,
          "attributes": {
            "COLOR_0": 5,
            "NORMAL": 6,
            "POSITION": 7,
            "TEXCOORD_0": 8,
            "TEXCOORD_1": 9,
            "_ALPHAINDEX": 10
          },
          "indices": 11,
          "material": 1
        }
      ]
    }
  ]
}