{
  "asset": {
    "version": "2.0",
    "generator": "GLTFExporter"
  },
  "scenes": [
    {
      "name": "Root Scene",
      "nodes": [
        1
      ]
    }
  ],
  "scene": 0,
  "nodes": [
    {
      "matrix": [
        0.00999999977648258,
        0,
        0,
        0,
        0,
        3.422854223488026e-10,
        -0.009999999434197158,
        0,
        0,
        0.009999999434197158,
        3.422854223488026e-10,
        0,
        0,
        0,
        8.94076094937191e-7,
        1
      ],
      "name": "Lo-B高压电电线杆_01",
      "extras": {
        "name": "Lo-B高压电电线杆_01"
      },
      "mesh": 0
    },
    {
      "name": "RootNode",
      "extras": {
        "name": "RootNode"
      },
      "children": [
        0
      ]
    }
  ],
  "bufferViews": [
    {
      "buffer": 0,
      "byteOffset": 0,
      "byteLength": 136968,
      "target": 34962,
      "byteStride": 12
    },
    {
      "buffer": 0,
      "byteOffset": 136968,
      "byteLength": 136968,
      "target": 34962,
      "byteStride": 12
    },
    {
      "buffer": 0,
      "byteOffset": 273936,
      "byteLength": 91312,
      "target": 34962,
      "byteStride": 8
    },
    {
      "buffer": 0,
      "byteOffset": 365248,
      "byteLength": 45216,
      "target": 34963
    }
  ],
  "buffers": [
    {
      "byteLength": 410464,
      "uri": "data:application/octet-stream;base64,"
    }
  ],
  "accessors": [
    {
      "bufferView": 0,
      "componentType": 5126,
      "count": 11414,
      "max": [
        1,
        1,
        1
      ],
      "min": [
        -1,
        -1,
        -1
      ],
      "type": "VEC3"
    },
    {
      "bufferView": 1,
      "componentType": 5126,
      "count": 11414,
      "max": [
        562.0816040039062,
        269.5184326171875,
        2979.171630859375
      ],
      "min": [
        -562.0811767578125,
        -269.5185546875,
        0
      ],
      "type": "VEC3"
    },
    {
      "bufferView": 2,
      "componentType": 5126,
      "count": 11414,
      "max": [
        0.993066132068634,
        0.98024582862854
      ],
      "min": [
        0.07130837440490723,
        0.004782259464263916
      ],
      "type": "VEC2"
    },
    {
      "bufferView": 3,
      "componentType": 5123,
      "count": 22608,
      "max": [
        11413
      ],
      "min": [
        0
      ],
      "type": "SCALAR"
    }
  ],
  "materials": [
    {
      "pbrMetallicRoughness": {
        "baseColorFactor": [
          1.00196087,
          1.00196087,
          1.00196087,
          1
        ],
        "metallicFactor": 0.099999994,
        "roughnessFactor": 0.94,
        "baseColorTexture": {
          "index": 0
        }
      },
      "name": "blinn38",
      "extras": {
        "gltfExtensions": {}
      }
    }
  ],
  "textures": [
    {
      "sampler": 0,
      "source": 0,
      "name": "smd_1.jpg"
    }
  ],
  "samplers": [
    {
      "magFilter": 9729,
      "minFilter": 9987,
      "wrapS": 10497,
      "wrapT": 10497
    }
  ],
  "images": [
    {
      "mimeType": "image/png",
      "uri": "data:image/png;base64,"
    }
  ],
  "meshes": [
    {
      "primitives": [
        {
          "mode": 4,
          "attributes": {
            "NORMAL": 0,
            "POSITION": 1,
            "TEXCOORD_0": 2
          },
          "extras": {
            "$cacheKey": "https://model.3dmomoda.com/models/7767ac5ff1104e35a02f951a08088239/0/gltf/true"
          },
          "indices": 3,
          "material": 0
        }
      ]
    }
  ]
}