{
  "asset": {
    "version": "2.0",
    "generator": "GLTFExporter"
  },
  "scenes": [
    {
      "name": "Root Scene",
      "nodes": [
        3
      ]
    }
  ],
  "scene": 0,
  "nodes": [
    {
      "matrix": [
        0.6094010896516365,
        0.14780338084920483,
        0,
        0,
        0,
        -1.6504577551996666e-8,
        -0.3109690115988765,
        0,
        -0.061759456885409354,
        0.2546374931443961,
        -1.390662524010813e-8,
        0,
        1.24158716201782,
        6.20527648925781,
        -0.0100343134254217,
        1
      ],
      "name": "LO-boli_01",
      "extras": {
        "name": "LO-boli_01"
      },
      "mesh": 0
    },
    {
      "matrix": [
        0.6094010896516365,
        0.14780338084920483,
        0,
        0,
        0,
        -1.6504577551996666e-8,
        -0.3109690115988765,
        0,
        -0.034766034843197346,
        0.14334219252394292,
        -7.828407858993145e-9,
        0,
        1.24204587936401,
        6.20338487625122,
        -0.0100343134254217,
        1
      ],
      "name": "LO-pian_01",
      "extras": {
        "name": "LO-pian_01"
      },
      "mesh": 1
    },
    {
      "matrix": [
        1,
        0,
        0,
        0,
        0,
        0.9999999999999867,
        1.629206849429466e-7,
        0,
        0,
        -1.629206849429466e-7,
        0.9999999999999867,
        0,
        -0.0000808537006378174,
        -0.0000177437923412072,
        -0.0100349299609661,
        1
      ],
      "name": "LO-gan_01",
      "extras": {
        "name": "LO-gan_01"
      },
      "mesh": 2
    },
    {
      "name": "RootNode",
      "extras": {
        "name": "RootNode"
      },
      "children": [
        0,
        1,
        2
      ]
    }
  ],
  "bufferViews": [
    {
      "buffer": 0,
      "byteOffset": 0,
      "byteLength": 1500,
      "target": 34962,
      "byteStride": 12
    },
    {
      "buffer": 0,
      "byteOffset": 1500,
      "byteLength": 1500,
      "target": 34962,
      "byteStride": 12
    },
    {
      "buffer": 0,
      "byteOffset": 3000,
      "byteLength": 1000,
      "target": 34962,
      "byteStride": 8
    },
    {
      "buffer": 0,
      "byteOffset": 4000,
      "byteLength": 1000,
      "target": 34962,
      "byteStride": 8
    },
    {
      "buffer": 0,
      "byteOffset": 5000,
      "byteLength": 1080,
      "target": 34963
    },
    {
      "buffer": 0,
      "byteOffset": 6080,
      "byteLength": 240,
      "target": 34962,
      "byteStride": 12
    },
    {
      "buffer": 0,
      "byteOffset": 6320,
      "byteLength": 240,
      "target": 34962,
      "byteStride": 12
    },
    {
      "buffer": 0,
      "byteOffset": 6560,
      "byteLength": 160,
      "target": 34962,
      "byteStride": 8
    },
    {
      "buffer": 0,
      "byteOffset": 6720,
      "byteLength": 160,
      "target": 34962,
      "byteStride": 8
    },
    {
      "buffer": 0,
      "byteOffset": 6880,
      "byteLength": 108,
      "target": 34963
    },
    {
      "buffer": 0,
      "byteOffset": 6988,
      "byteLength": 8124,
      "target": 34962,
      "byteStride": 12
    },
    {
      "buffer": 0,
      "byteOffset": 15112,
      "byteLength": 8124,
      "target": 34962,
      "byteStride": 12
    },
    {
      "buffer": 0,
      "byteOffset": 23236,
      "byteLength": 5416,
      "target": 34962,
      "byteStride": 8
    },
    {
      "buffer": 0,
      "byteOffset": 28652,
      "byteLength": 5416,
      "target": 34962,
      "byteStride": 8
    },
    {
      "buffer": 0,
      "byteOffset": 34068,
      "byteLength": 5748,
      "target": 34963
    }
  ],
  "buffers": [
    {
      "byteLength": 39816,
      "uri": "data:application/octet-stream;base64,"
    }
  ],
  "accessors": [
    {
      "bufferView": 0,
      "componentType": 5126,
      "count": 125,
      "max": [
        0.9414335489273071,
        0.9842402338981628,
        -0.17683668434619904
      ],
      "min": [
        -0.9414334893226624,
        -0.9842401146888733,
        -1
      ],
      "type": "VEC3"
    },
    {
      "bufferView": 1,
      "componentType": 5126,
      "count": 125,
      "max": [
        0.3454950153827667,
        0.32832446694374084,
        -0.01699604094028473
      ],
      "min": [
        -0.3454950153827667,
        -0.328324556350708,
        -0.31361228227615356
      ],
      "type": "VEC3"
    },
    {
      "bufferView": 2,
      "componentType": 5126,
      "count": 125,
      "max": [
        1.000000238418579,
        1.0000001192092896
      ],
      "min": [
        0,
        0.5
      ],
      "type": "VEC2"
    },
    {
      "bufferView": 3,
      "componentType": 5126,
      "count": 125,
      "max": [
        0,
        1
      ],
      "min": [
        0,
        1
      ],
      "type": "VEC2"
    },
    {
      "bufferView": 4,
      "componentType": 5123,
      "count": 540,
      "max": [
        124
      ],
      "min": [
        0
      ],
      "type": "SCALAR"
    },
    {
      "bufferView": 5,
      "componentType": 5126,
      "count": 20,
      "max": [
        0,
        0,
        -1
      ],
      "min": [
        0,
        0,
        -1
      ],
      "type": "VEC3"
    },
    {
      "bufferView": 6,
      "componentType": 5126,
      "count": 20,
      "max": [
        0.3454950153827667,
        0.32832446694374084,
        -0.01699604094028473
      ],
      "min": [
        -0.3454950153827667,
        -0.328324556350708,
        -0.01699604094028473
      ],
      "type": "VEC3"
    },
    {
      "bufferView": 7,
      "componentType": 5126,
      "count": 20,
      "max": [
        1,
        1.0324335098266602
      ],
      "min": [
        0,
        -0.032433390617370605
      ],
      "type": "VEC2"
    },
    {
      "bufferView": 8,
      "componentType": 5126,
      "count": 20,
      "max": [
        0,
        1
      ],
      "min": [
        0,
        1
      ],
      "type": "VEC2"
    },
    {
      "bufferView": 9,
      "componentType": 5123,
      "count": 54,
      "max": [
        19
      ],
      "min": [
        0
      ],
      "type": "SCALAR"
    },
    {
      "bufferView": 10,
      "componentType": 5126,
      "count": 677,
      "max": [
        0.9999972581863403,
        0.2635837197303772,
        0.9999999403953552
      ],
      "min": [
        -0.9999972581863403,
        -0.9999551177024841,
        -0.9999999403953552
      ],
      "type": "VEC3"
    },
    {
      "bufferView": 11,
      "componentType": 5126,
      "count": 677,
      "max": [
        1.527761459350586,
        6.383973598480225,
        0.13796119391918182
      ],
      "min": [
        -0.05112770199775696,
        0.00003719329833984375,
        -0.1379619687795639
      ],
      "type": "VEC3"
    },
    {
      "bufferView": 12,
      "componentType": 5126,
      "count": 677,
      "max": [
        3.0938949584960938,
        11.139892578125
      ],
      "min": [
        -2.0938949584960938,
        -10.066675186157227
      ],
      "type": "VEC2"
    },
    {
      "bufferView": 13,
      "componentType": 5126,
      "count": 677,
      "max": [
        3.0938949584960938,
        11.139892578125
      ],
      "min": [
        -2.0938949584960938,
        -10.066675186157227
      ],
      "type": "VEC2"
    },
    {
      "bufferView": 14,
      "componentType": 5123,
      "count": 2874,
      "max": [
        676
      ],
      "min": [
        0
      ],
      "type": "SCALAR"
    }
  ],
  "materials": [
    {
      "pbrMetallicRoughness": {
        "baseColorFactor": [
          0.607843161,
          0.5529412,
          0.384313762,
          0.599999964
        ],
        "metallicFactor": 0.099999994,
        "roughnessFactor": 1
      },
      "alphaMode": "BLEND",
      "name": "01_-_Default_alpha",
      "extras": {
        "gltfExtensions": {}
      }
    },
    {
      "pbrMetallicRoughness": {
        "metallicFactor": 0,
        "roughnessFactor": 1,
        "baseColorTexture": {
          "index": 0
        }
      },
      "name": "Material__25",
      "extras": {
        "gltfExtensions": {}
      }
    },
    {
      "pbrMetallicRoughness": {
        "metallicFactor": 0,
        "roughnessFactor": 0.9,
        "baseColorTexture": {
          "index": 1
        }
      },
      "name": "Material__26",
      "extras": {
        "gltfExtensions": {}
      }
    }
  ],
  "meshes": [
    {
      "primitives": [
        {
          "mode": 4,
          "attributes": {
            "NORMAL": 0,
            "POSITION": 1,
            "TEXCOORD_0": 2,
            "TEXCOORD_1": 3
          },
          "extras": {
            "$cacheKey": "https://model.3dmomoda.com/models/8991cc645350493d9b7c41f655953665/0/gltf/true"
          },
          "indices": 4,
          "material": 0
        }
      ]
    },
    {
      "primitives": [
        {
          "mode": 4,
          "attributes": {
            "NORMAL": 5,
            "POSITION": 6,
            "TEXCOORD_0": 7,
            "TEXCOORD_1": 8
          },
          "indices": 9,
          "material": 1
        }
      ]
    },
    {
      "primitives": [
        {
          "mode": 4,
          "attributes": {
            "NORMAL": 10,
            "POSITION": 11,
            "TEXCOORD_0": 12,
            "TEXCOORD_1": 13
          },
          "indices": 14,
          "material": 2
        }
      ]
    }
  ],
  "textures": [
    {
      "sampler": 0,
      "source": 0,
      "name": "smd_1.jpg"
    },
    {
      "sampler": 1,
      "source": 1,
      "name": "smd_2.jpg"
    }
  ],
  "samplers": [
    {
      "magFilter": 9729,
      "minFilter": 9987,
      "wrapS": 10497,
      "wrapT": 10497
    },
    {
      "magFilter": 9729,
      "minFilter": 9987,
      "wrapS": 10497,
      "wrapT": 10497
    }
  ],
  "images": [
    {
      "mimeType": "image/png",
      "uri": "data:image/png;base64,"
    },
    {
      "mimeType": "image/png",
      "uri": "data:image/png;base64,"
    }
  ]
}