{
  "asset": {
    "version": "2.0",
    "generator": "GLTFExporter"
  },
  "scenes": [
    {
      "name": "Root Scene",
      "nodes": [
        3
      ]
    }
  ],
  "scene": 0,
  "nodes": [
    {
      "matrix": [
        0.609200227948504,
        0.14862909884357622,
        0,
        0,
        0,
        -6.557075952761239e-9,
        -0.3109690016513749,
        0,
        -0.03496025868569699,
        0.14329494149148128,
        -3.1101350373188525e-9,
        0,
        1.24271166324615,
        6.20092678070068,
        0.00142344285268337,
        1
      ],
      "name": "LO-piani_01",
      "extras": {
        "name": "LO-piani_01"
      },
      "mesh": 0
    },
    {
      "matrix": [
        1,
        0,
        0,
        0,
        0,
        3.422854299994782e-8,
        -0.999999965771457,
        0,
        0,
        0.999999965771457,
        3.422854299994782e-8,
        0,
        0.000072479248046875,
        0,
        0.0014529824256897,
        1
      ],
      "name": "LO-gan_01",
      "extras": {
        "name": "LO-gan_01"
      },
      "mesh": 1
    },
    {
      "matrix": [
        0.6094010802409429,
        0.14780342021244597,
        0,
        0,
        0,
        -1.8838000190593166e-8,
        -0.3109690139322992,
        0,
        -0.07685450590742683,
        0.3168750883674406,
        -1.9752309712390125e-8,
        0,
        0.0124773979187012,
        6.20499753952026,
        0.00145300128497183,
        1
      ],
      "name": "LO-boli_01",
      "extras": {
        "name": "LO-boli_01"
      },
      "mesh": 2
    },
    {
      "name": "RootNode",
      "extras": {
        "name": "RootNode"
      },
      "children": [
        0,
        1,
        2
      ]
    }
  ],
  "bufferViews": [
    {
      "buffer": 0,
      "byteOffset": 0,
      "byteLength": 888,
      "target": 34962,
      "byteStride": 12
    },
    {
      "buffer": 0,
      "byteOffset": 888,
      "byteLength": 888,
      "target": 34962,
      "byteStride": 12
    },
    {
      "buffer": 0,
      "byteOffset": 1776,
      "byteLength": 592,
      "target": 34962,
      "byteStride": 8
    },
    {
      "buffer": 0,
      "byteOffset": 2368,
      "byteLength": 592,
      "target": 34962,
      "byteStride": 8
    },
    {
      "buffer": 0,
      "byteOffset": 2960,
      "byteLength": 216,
      "target": 34963
    },
    {
      "buffer": 0,
      "byteOffset": 3176,
      "byteLength": 15888,
      "target": 34962,
      "byteStride": 12
    },
    {
      "buffer": 0,
      "byteOffset": 19064,
      "byteLength": 15888,
      "target": 34962,
      "byteStride": 12
    },
    {
      "buffer": 0,
      "byteOffset": 34952,
      "byteLength": 10592,
      "target": 34962,
      "byteStride": 8
    },
    {
      "buffer": 0,
      "byteOffset": 45544,
      "byteLength": 10592,
      "target": 34962,
      "byteStride": 8
    },
    {
      "buffer": 0,
      "byteOffset": 56136,
      "byteLength": 11100,
      "target": 34963
    },
    {
      "buffer": 0,
      "byteOffset": 67236,
      "byteLength": 6000,
      "target": 34962,
      "byteStride": 12
    },
    {
      "buffer": 0,
      "byteOffset": 73236,
      "byteLength": 6000,
      "target": 34962,
      "byteStride": 12
    },
    {
      "buffer": 0,
      "byteOffset": 79236,
      "byteLength": 4000,
      "target": 34962,
      "byteStride": 8
    },
    {
      "buffer": 0,
      "byteOffset": 83236,
      "byteLength": 4000,
      "target": 34962,
      "byteStride": 8
    },
    {
      "buffer": 0,
      "byteOffset": 87236,
      "byteLength": 4320,
      "target": 34963
    }
  ],
  "buffers": [
    {
      "byteLength": 91556,
      "uri": "data:application/octet-stream;base64,"
    }
  ],
  "accessors": [
    {
      "bufferView": 0,
      "componentType": 5126,
      "count": 74,
      "max": [
        0,
        0.000009343223609903362,
        -0.41290491819381714
      ],
      "min": [
        -0.9107741713523865,
        -0.000009090691492019687,
        -1
      ],
      "type": "VEC3"
    },
    {
      "bufferView": 1,
      "componentType": 5126,
      "count": 74,
      "max": [
        0.3454945385456085,
        0.3283245265483856,
        4.667155742645264
      ],
      "min": [
        -4.154160022735596,
        -0.328324556350708,
        0.000002250075340270996
      ],
      "type": "VEC3"
    },
    {
      "bufferView": 2,
      "componentType": 5126,
      "count": 74,
      "max": [
        0.9632366895675659,
        0.9932854771614075
      ],
      "min": [
        0.036763280630111694,
        0.006714582443237305
      ],
      "type": "VEC2"
    },
    {
      "bufferView": 3,
      "componentType": 5126,
      "count": 74,
      "max": [
        0,
        1
      ],
      "min": [
        0,
        1
      ],
      "type": "VEC2"
    },
    {
      "bufferView": 4,
      "componentType": 5123,
      "count": 108,
      "max": [
        73
      ],
      "min": [
        0
      ],
      "type": "SCALAR"
    },
    {
      "bufferView": 5,
      "componentType": 5126,
      "count": 1324,
      "max": [
        0.9999990463256836,
        0.9999999403953552,
        0.9999551177024841
      ],
      "min": [
        -0.9999990463256836,
        -0.9999999403953552,
        -1
      ],
      "type": "VEC3"
    },
    {
      "bufferView": 6,
      "componentType": 5126,
      "count": 1324,
      "max": [
        1.5276798009872437,
        0.13796155154705048,
        6.3839335441589355
      ],
      "min": [
        -1.527823805809021,
        -0.13796161115169525,
        -0.00000345494754583342
      ],
      "type": "VEC3"
    },
    {
      "bufferView": 7,
      "componentType": 5126,
      "count": 1324,
      "max": [
        3.111332893371582,
        11.139892578125
      ],
      "min": [
        -2.0938949584960938,
        -10.066675186157227
      ],
      "type": "VEC2"
    },
    {
      "bufferView": 8,
      "componentType": 5126,
      "count": 1324,
      "max": [
        3.111332893371582,
        11.139892578125
      ],
      "min": [
        -2.0938949584960938,
        -10.066675186157227
      ],
      "type": "VEC2"
    },
    {
      "bufferView": 9,
      "componentType": 5123,
      "count": 5550,
      "max": [
        1323
      ],
      "min": [
        0
      ],
      "type": "SCALAR"
    },
    {
      "bufferView": 10,
      "componentType": 5126,
      "count": 500,
      "max": [
        0.791278064250946,
        0.9842402338981628,
        1
      ],
      "min": [
        -0.9977927207946777,
        -0.9842402338981628,
        -1
      ],
      "type": "VEC3"
    },
    {
      "bufferView": 11,
      "componentType": 5126,
      "count": 500,
      "max": [
        2.2505691051483154,
        0.3283245265483856,
        1.198965072631836
      ],
      "min": [
        -2.250568389892578,
        -0.3283245265483856,
        -1.1989660263061523
      ],
      "type": "VEC3"
    },
    {
      "bufferView": 12,
      "componentType": 5126,
      "count": 500,
      "max": [
        1.000000238418579,
        1.0000001192092896
      ],
      "min": [
        0,
        0.5
      ],
      "type": "VEC2"
    },
    {
      "bufferView": 13,
      "componentType": 5126,
      "count": 500,
      "max": [
        0,
        1
      ],
      "min": [
        0,
        1
      ],
      "type": "VEC2"
    },
    {
      "bufferView": 14,
      "componentType": 5123,
      "count": 2160,
      "max": [
        499
      ],
      "min": [
        0
      ],
      "type": "SCALAR"
    }
  ],
  "materials": [
    {
      "pbrMetallicRoughness": {
        "metallicFactor": 0,
        "roughnessFactor": 1,
        "baseColorTexture": {
          "index": 0
        }
      },
      "name": "Material__25",
      "extras": {
        "gltfExtensions": {}
      }
    },
    {
      "pbrMetallicRoughness": {
        "metallicFactor": 0,
        "roughnessFactor": 0.95,
        "baseColorTexture": {
          "index": 1
        }
      },
      "name": "Material__26",
      "extras": {
        "gltfExtensions": {}
      }
    },
    {
      "pbrMetallicRoughness": {
        "baseColorFactor": [
          0.5176471,
          0.450980425,
          0.360784322,
          0.799999952
        ],
        "metallicFactor": 0.099999994,
        "roughnessFactor": 0.97
      },
      "alphaMode": "BLEND",
      "name": "01_-_Default_alpha",
      "extras": {
        "gltfExtensions": {}
      }
    }
  ],
  "textures": [
    {
      "sampler": 0,
      "source": 0,
      "name": "smd_2.jpg"
    },
    {
      "sampler": 1,
      "source": 1,
      "name": "smd_3.jpg"
    }
  ],
  "samplers": [
    {
      "magFilter": 9729,
      "minFilter": 9987,
      "wrapS": 10497,
      "wrapT": 10497
    },
    {
      "magFilter": 9729,
      "minFilter": 9987,
      "wrapS": 10497,
      "wrapT": 10497
    }
  ],
  "images": [
    {
      "mimeType": "image/png",
      "uri": "data:image/png;base64,"
    },
    {
      "mimeType": "image/png",
      "uri": "data:image/png;base64,"
    }
  ],
  "meshes": [
    {
      "primitives": [
        {
          "mode": 4,
          "attributes": {
            "NORMAL": 0,
            "POSITION": 1,
            "TEXCOORD_0": 2,
            "TEXCOORD_1": 3
          },
          "extras": {
            "$cacheKey": "https://model.3dmomoda.com/models/8cef07e688214aabafd59ff66c092b04/0/gltf/true"
          },
          "indices": 4,
          "material": 0
        }
      ]
    },
    {
      "primitives": [
        {
          "mode": 4,
          "attributes": {
            "NORMAL": 5,
            "POSITION": 6,
            "TEXCOORD_0": 7,
            "TEXCOORD_1": 8
          },
          "indices": 9,
          "material": 1
        }
      ]
    },
    {
      "primitives": [
        {
          "mode": 4,
          "attributes": {
            "NORMAL": 10,
            "POSITION": 11,
            "TEXCOORD_0": 12,
            "TEXCOORD_1": 13
          },
          "indices": 14,
          "material": 2
        }
      ]
    }
  ]
}