{
  "asset": {
    "version": "2.0",
    "generator": "GLTFExporter"
  },
  "scenes": [
    {
      "name": "Root Scene",
      "nodes": [
        2
      ]
    }
  ],
  "scene": 0,
  "nodes": [
    {
      "matrix": [
        -0.774883866117881,
        -0.6321037780191767,
        -7.097991877591525e-8,
        0,
        1.2754045480845022e-7,
        -9.818978341513684e-8,
        -1.0000000541319598,
        0,
        0.6321037780191678,
        -0.7748838119859144,
        6.06265158076269e-8,
        0,
        -0.0183886736631393,
        20.1373138427734,
        1.09964179992676,
        1
      ],
      "name": "Lo-风力发电车螺旋桨_01",
      "extras": {
        "name": "Lo-风力发电车螺旋桨_01"
      },
      "mesh": 0
    },
    {
      "matrix": [
        1,
        0,
        0,
        0,
        0,
        3.422854299994782e-8,
        -0.999999965771457,
        0,
        0,
        0.999999965771457,
        3.422854299994782e-8,
        0,
        -0.018388643860817,
        0,
        -0.0216684490442276,
        1
      ],
      "name": "Lo-风力发电车支杆_01",
      "extras": {
        "name": "Lo-风力发电车支杆_01"
      },
      "mesh": 1
    },
    {
      "name": "RootNode",
      "extras": {
        "name": "RootNode"
      },
      "children": [
        0,
        1
      ]
    }
  ],
  "bufferViews": [
    {
      "buffer": 0,
      "byteOffset": 0,
      "byteLength": 4740,
      "target": 34962,
      "byteStride": 12
    },
    {
      "buffer": 0,
      "byteOffset": 4740,
      "byteLength": 4740,
      "target": 34962,
      "byteStride": 12
    },
    {
      "buffer": 0,
      "byteOffset": 9480,
      "byteLength": 3160,
      "target": 34962,
      "byteStride": 8
    },
    {
      "buffer": 0,
      "byteOffset": 12640,
      "byteLength": 836,
      "target": 34963
    },
    {
      "buffer": 0,
      "byteOffset": 13476,
      "byteLength": 912,
      "target": 34962,
      "byteStride": 12
    },
    {
      "buffer": 0,
      "byteOffset": 14388,
      "byteLength": 912,
      "target": 34962,
      "byteStride": 12
    },
    {
      "buffer": 0,
      "byteOffset": 15300,
      "byteLength": 608,
      "target": 34962,
      "byteStride": 8
    },
    {
      "buffer": 0,
      "byteOffset": 15908,
      "byteLength": 288,
      "target": 34963
    }
  ],
  "buffers": [
    {
      "byteLength": 16196,
      "uri": "data:application/octet-stream;base64,"
    }
  ],
  "accessors": [
    {
      "bufferView": 0,
      "componentType": 5126,
      "count": 395,
      "max": [
        0.9586271047592163,
        0.9987196922302246,
        0.9768721461296082
      ],
      "min": [
        -0.9640921950340271,
        -1,
        -0.9809169173240662
      ],
      "type": "VEC3"
    },
    {
      "bufferView": 1,
      "componentType": 5126,
      "count": 395,
      "max": [
        10.274331092834473,
        0.4040485918521881,
        7.669927597045898
      ],
      "min": [
        -7.263955116271973,
        -0.6002745628356934,
        -10.125731468200684
      ],
      "type": "VEC3"
    },
    {
      "bufferView": 2,
      "componentType": 5126,
      "count": 395,
      "max": [
        0.6140466928482056,
        0.29598701000213623
      ],
      "min": [
        0.011049401946365833,
        0.014694571495056152
      ],
      "type": "VEC2"
    },
    {
      "bufferView": 3,
      "componentType": 5123,
      "count": 417,
      "max": [
        394
      ],
      "min": [
        0
      ],
      "type": "SCALAR"
    },
    {
      "bufferView": 4,
      "componentType": 5126,
      "count": 76,
      "max": [
        1,
        1,
        1
      ],
      "min": [
        -1,
        -1,
        -1
      ],
      "type": "VEC3"
    },
    {
      "bufferView": 5,
      "componentType": 5126,
      "count": 76,
      "max": [
        0.5024280548095703,
        1.0379085540771484,
        20.6495304107666
      ],
      "min": [
        -0.5024280548095703,
        -0.9532384276390076,
        0
      ],
      "type": "VEC3"
    },
    {
      "bufferView": 6,
      "componentType": 5126,
      "count": 76,
      "max": [
        0.6054573059082031,
        0.20310086011886597
      ],
      "min": [
        0.1822579801082611,
        0.00937342643737793
      ],
      "type": "VEC2"
    },
    {
      "bufferView": 7,
      "componentType": 5123,
      "count": 144,
      "max": [
        75
      ],
      "min": [
        0
      ],
      "type": "SCALAR"
    }
  ],
  "materials": [
    {
      "pbrMetallicRoughness": {
        "metallicFactor": 0.099999994,
        "roughnessFactor": 1,
        "baseColorTexture": {
          "index": 0
        }
      },
      "name": "Std_NTexture_01_jpg",
      "extras": {
        "gltfExtensions": {}
      }
    }
  ],
  "textures": [
    {
      "sampler": 0,
      "source": 0,
      "name": "smd_1.jpg"
    }
  ],
  "samplers": [
    {
      "magFilter": 9729,
      "minFilter": 9987,
      "wrapS": 10497,
      "wrapT": 10497
    }
  ],
  "images": [
    {
      "mimeType": "image/png",
      "uri": "data:image/png;base64,"
    }
  ],
  "meshes": [
    {
      "primitives": [
        {
          "mode": 4,
          "attributes": {
            "NORMAL": 0,
            "POSITION": 1,
            "TEXCOORD_0": 2
          },
          "extras": {
            "$cacheKey": "https://model.3dmomoda.com/models/9E6CC6BCFCAA4D75A7A1D1E600A5094C/0/gltf/true"
          },
          "indices": 3,
          "material": 0
        }
      ]
    },
    {
      "primitives": [
        {
          "mode": 4,
          "attributes": {
            "NORMAL": 4,
            "POSITION": 5,
            "TEXCOORD_0": 6
          },
          "indices": 7,
          "material": 0
        }
      ]
    }
  ]
}