{
  "asset": {
    "version": "2.0",
    "generator": "GLTFExporter"
  },
  "scenes": [
    {
      "name": "Root Scene",
      "nodes": [
        5
      ]
    }
  ],
  "scene": 0,
  "nodes": [
    {
      "matrix": [
        0.0278929993510246,
        0,
        0,
        0,
        0,
        9.54736727684062e-10,
        -0.027892998396287873,
        0,
        0,
        0.027892998396287873,
        9.54736727684062e-10,
        0,
        -0.0000581748681725003,
        0.0582205764949322,
        0.115571811795235,
        1
      ],
      "name": "BasePoint",
      "extras": {
        "name": "BasePoint"
      }
    },
    {
      "matrix": [
        1,
        0,
        0,
        0,
        0,
        3.422854299994782e-8,
        -0.999999965771457,
        0,
        0,
        0.999999965771457,
        3.422854299994782e-8,
        0,
        0.2979896068573,
        1.01113867759705,
        0.121999956667423,
        1
      ],
      "name": "men_02",
      "extras": {
        "name": "men_02"
      },
      "mesh": 0
    },
    {
      "matrix": [
        1,
        0,
        0,
        0,
        0,
        3.422854299994782e-8,
        -0.999999965771457,
        0,
        0,
        0.999999965771457,
        3.422854299994782e-8,
        0,
        -0.297995746135712,
        1.10000002384186,
        -0.125444978475571,
        1
      ],
      "name": "men_01",
      "extras": {
        "name": "men_01"
      },
      "mesh": 1
    },
    {
      "matrix": [
        1,
        0,
        0,
        0,
        0,
        3.422854299994782e-8,
        -0.999999965771457,
        0,
        0,
        0.999999965771457,
        3.422854299994782e-8,
        0,
        0,
        1.90734859017994e-8,
        0,
        1
      ],
      "name": "Lo-BODY_01",
      "extras": {
        "name": "Lo-BODY_01"
      },
      "mesh": 2
    },
    {
      "matrix": [
        1,
        0,
        0,
        0,
        0,
        0.9999999999999867,
        1.629206849429466e-7,
        0,
        0,
        -1.629206849429466e-7,
        0.9999999999999867,
        0,
        -0.227685183286667,
        0.0765649080276489,
        0.116655468940735,
        1
      ],
      "name": "u",
      "extras": {
        "name": "u"
      },
      "mesh": 3
    },
    {
      "name": "RootNode",
      "extras": {
        "name": "RootNode"
      },
      "children": [
        0,
        1,
        2,
        3,
        4
      ]
    }
  ],
  "bufferViews": [
    {
      "buffer": 0,
      "byteOffset": 0,
      "byteLength": 4048,
      "target": 34962,
      "byteStride": 16
    },
    {
      "buffer": 0,
      "byteOffset": 4048,
      "byteLength": 3036,
      "target": 34962,
      "byteStride": 12
    },
    {
      "buffer": 0,
      "byteOffset": 7084,
      "byteLength": 3036,
      "target": 34962,
      "byteStride": 12
    },
    {
      "buffer": 0,
      "byteOffset": 10120,
      "byteLength": 2024,
      "target": 34962,
      "byteStride": 8
    },
    {
      "buffer": 0,
      "byteOffset": 12144,
      "byteLength": 2024,
      "target": 34962,
      "byteStride": 8
    },
    {
      "buffer": 0,
      "byteOffset": 14168,
      "byteLength": 1012,
      "target": 34962,
      "byteStride": 4
    },
    {
      "buffer": 0,
      "byteOffset": 15180,
      "byteLength": 672,
      "target": 34963
    },
    {
      "buffer": 0,
      "byteOffset": 15852,
      "byteLength": 3648,
      "target": 34962,
      "byteStride": 16
    },
    {
      "buffer": 0,
      "byteOffset": 19500,
      "byteLength": 2736,
      "target": 34962,
      "byteStride": 12
    },
    {
      "buffer": 0,
      "byteOffset": 22236,
      "byteLength": 2736,
      "target": 34962,
      "byteStride": 12
    },
    {
      "buffer": 0,
      "byteOffset": 24972,
      "byteLength": 1824,
      "target": 34962,
      "byteStride": 8
    },
    {
      "buffer": 0,
      "byteOffset": 26796,
      "byteLength": 1824,
      "target": 34962,
      "byteStride": 8
    },
    {
      "buffer": 0,
      "byteOffset": 28620,
      "byteLength": 912,
      "target": 34962,
      "byteStride": 4
    },
    {
      "buffer": 0,
      "byteOffset": 29532,
      "byteLength": 660,
      "target": 34963
    },
    {
      "buffer": 0,
      "byteOffset": 30192,
      "byteLength": 5888,
      "target": 34962,
      "byteStride": 16
    },
    {
      "buffer": 0,
      "byteOffset": 36080,
      "byteLength": 4416,
      "target": 34962,
      "byteStride": 12
    },
    {
      "buffer": 0,
      "byteOffset": 40496,
      "byteLength": 4416,
      "target": 34962,
      "byteStride": 12
    },
    {
      "buffer": 0,
      "byteOffset": 44912,
      "byteLength": 2944,
      "target": 34962,
      "byteStride": 8
    },
    {
      "buffer": 0,
      "byteOffset": 47856,
      "byteLength": 2944,
      "target": 34962,
      "byteStride": 8
    },
    {
      "buffer": 0,
      "byteOffset": 50800,
      "byteLength": 1472,
      "target": 34962,
      "byteStride": 4
    },
    {
      "buffer": 0,
      "byteOffset": 52272,
      "byteLength": 1008,
      "target": 34963
    },
    {
      "buffer": 0,
      "byteOffset": 53280,
      "byteLength": 36096,
      "target": 34962,
      "byteStride": 12
    },
    {
      "buffer": 0,
      "byteOffset": 89376,
      "byteLength": 36096,
      "target": 34962,
      "byteStride": 12
    },
    {
      "buffer": 0,
      "byteOffset": 125472,
      "byteLength": 24064,
      "target": 34962,
      "byteStride": 8
    },
    {
      "buffer": 0,
      "byteOffset": 149536,
      "byteLength": 24064,
      "target": 34962,
      "byteStride": 8
    },
    {
      "buffer": 0,
      "byteOffset": 173600,
      "byteLength": 9024,
      "target": 34963
    }
  ],
  "buffers": [
    {
      "byteLength": 182624,
      "uri": "data:application/octet-stream;base64,"
    }
  ],
  "accessors": [
    {
      "bufferView": 0,
      "componentType": 5126,
      "count": 253,
      "max": [
        1,
        1,
        1,
        1
      ],
      "min": [
        1,
        1,
        1,
        1
      ],
      "type": "VEC4"
    },
    {
      "bufferView": 1,
      "componentType": 5126,
      "count": 253,
      "max": [
        1,
        1,
        1
      ],
      "min": [
        -1,
        -1,
        -0.7415610551834106
      ],
      "type": "VEC3"
    },
    {
      "bufferView": 2,
      "componentType": 5126,
      "count": 253,
      "max": [
        0.0020103752613067627,
        7.450580596923828e-9,
        1.132352352142334
      ],
      "min": [
        -0.597989559173584,
        -0.033580295741558075,
        -0.956798791885376
      ],
      "type": "VEC3"
    },
    {
      "bufferView": 3,
      "componentType": 5126,
      "count": 253,
      "max": [
        0.9676070213317871,
        13.025017738342285
      ],
      "min": [
        -0.9680048823356628,
        -0.7085868120193481
      ],
      "type": "VEC2"
    },
    {
      "bufferView": 4,
      "componentType": 5126,
      "count": 253,
      "max": [
        0.794921875,
        1
      ],
      "min": [
        0.001953125,
        -0.001953125
      ],
      "type": "VEC2"
    },
    {
      "bufferView": 5,
      "componentType": 5126,
      "count": 253,
      "max": [
        1
      ],
      "min": [
        1
      ],
      "type": "SCALAR"
    },
    {
      "bufferView": 6,
      "componentType": 5123,
      "count": 336,
      "max": [
        252
      ],
      "min": [
        0
      ],
      "type": "SCALAR"
    },
    {
      "bufferView": 7,
      "componentType": 5126,
      "count": 228,
      "max": [
        1,
        1,
        1,
        1
      ],
      "min": [
        1,
        1,
        1,
        1
      ],
      "type": "VEC4"
    },
    {
      "bufferView": 8,
      "componentType": 5126,
      "count": 228,
      "max": [
        1,
        1,
        1
      ],
      "min": [
        -1,
        -1,
        -0.7415610551834106
      ],
      "type": "VEC3"
    },
    {
      "bufferView": 9,
      "componentType": 5126,
      "count": 228,
      "max": [
        0.5979957580566406,
        0.03363531827926636,
        1.0434907674789429
      ],
      "min": [
        -0.0020042359828948975,
        0.00005501508712768555,
        -1.0456600189208984
      ],
      "type": "VEC3"
    },
    {
      "bufferView": 10,
      "componentType": 5126,
      "count": 228,
      "max": [
        0.9676070213317871,
        13.025017738342285
      ],
      "min": [
        -0.9680048823356628,
        -0.7085868120193481
      ],
      "type": "VEC2"
    },
    {
      "bufferView": 11,
      "componentType": 5126,
      "count": 228,
      "max": [
        0.783203125,
        1
      ],
      "min": [
        0.001953125,
        -0.001953125
      ],
      "type": "VEC2"
    },
    {
      "bufferView": 12,
      "componentType": 5126,
      "count": 228,
      "max": [
        1
      ],
      "min": [
        1
      ],
      "type": "SCALAR"
    },
    {
      "bufferView": 13,
      "componentType": 5123,
      "count": 330,
      "max": [
        227
      ],
      "min": [
        0
      ],
      "type": "SCALAR"
    },
    {
      "bufferView": 14,
      "componentType": 5126,
      "count": 368,
      "max": [
        1,
        1,
        1,
        1
      ],
      "min": [
        1,
        1,
        1,
        1
      ],
      "type": "VEC4"
    },
    {
      "bufferView": 15,
      "componentType": 5126,
      "count": 368,
      "max": [
        1,
        1,
        1
      ],
      "min": [
        -1,
        -1,
        -1
      ],
      "type": "VEC3"
    },
    {
      "bufferView": 16,
      "componentType": 5126,
      "count": 368,
      "max": [
        0.29999998211860657,
        0.15000008046627045,
        2.19783091545105
      ],
      "min": [
        -0.29999998211860657,
        -0.14649997651576996,
        -1.907348590179936e-8
      ],
      "type": "VEC3"
    },
    {
      "bufferView": 17,
      "componentType": 5126,
      "count": 368,
      "max": [
        0.9672309160232544,
        3.7178843021392822
      ],
      "min": [
        -0.7702397704124451,
        -0.023159146308898926
      ],
      "type": "VEC2"
    },
    {
      "bufferView": 18,
      "componentType": 5126,
      "count": 368,
      "max": [
        0.7685546875,
        0.9990234375
      ],
      "min": [
        0.0009765625,
        0.0009765625
      ],
      "type": "VEC2"
    },
    {
      "bufferView": 19,
      "componentType": 5126,
      "count": 368,
      "max": [
        1
      ],
      "min": [
        1
      ],
      "type": "SCALAR"
    },
    {
      "bufferView": 20,
      "componentType": 5123,
      "count": 504,
      "max": [
        367
      ],
      "min": [
        0
      ],
      "type": "SCALAR"
    },
    {
      "bufferView": 21,
      "componentType": 5126,
      "count": 3008,
      "max": [
        0,
        6.704695465487021e-7,
        1
      ],
      "min": [
        0,
        -6.704686370540003e-7,
        -1
      ],
      "type": "VEC3"
    },
    {
      "bufferView": 22,
      "componentType": 5126,
      "count": 3008,
      "max": [
        0.4757402539253235,
        2.0669260025024414,
        0
      ],
      "min": [
        -0.020837415009737015,
        -0.022225037217140198,
        -0.2359752655029297
      ],
      "type": "VEC3"
    },
    {
      "bufferView": 23,
      "componentType": 5126,
      "count": 3008,
      "max": [
        0.9365840554237366,
        0.9995352029800415
      ],
      "min": [
        0.048328697681427,
        0.0005541443824768066
      ],
      "type": "VEC2"
    },
    {
      "bufferView": 24,
      "componentType": 5126,
      "count": 3008,
      "max": [
        0,
        1
      ],
      "min": [
        0,
        1
      ],
      "type": "VEC2"
    },
    {
      "bufferView": 25,
      "componentType": 5123,
      "count": 4512,
      "max": [
        3007
      ],
      "min": [
        0
      ],
      "type": "SCALAR"
    }
  ],
  "materials": [
    {
      "pbrMetallicRoughness": {
        "metallicFactor": 0,
        "roughnessFactor": 0.96,
        "baseColorTexture": {
          "index": 0
        }
      },
      "occlusionTexture": {
        "index": 1,
        "texCoord": 1
      },
      "name": "Std__ZTE30_jpgZTE_12.bmp",
      "extras": {
        "gltfExtensions": {}
      }
    },
    {
      "pbrMetallicRoughness": {
        "metallicFactor": 0,
        "roughnessFactor": 0.96,
        "baseColorTexture": {
          "index": 0
        }
      },
      "occlusionTexture": {
        "index": 2,
        "texCoord": 1
      },
      "name": "Std__ZTE30_jpgZTE_11.bmp",
      "extras": {
        "gltfExtensions": {}
      }
    },
    {
      "pbrMetallicRoughness": {
        "metallicFactor": 0,
        "roughnessFactor": 0.96,
        "baseColorTexture": {
          "index": 0
        }
      },
      "occlusionTexture": {
        "index": 3,
        "texCoord": 1
      },
      "name": "Std__ZTE30_jpgZTE_10.bmp",
      "extras": {
        "gltfExtensions": {}
      }
    },
    {
      "pbrMetallicRoughness": {
        "metallicFactor": 0,
        "roughnessFactor": 1,
        "baseColorTexture": {
          "index": 4
        }
      },
      "name": "Material__0",
      "extras": {
        "gltfExtensions": {}
      }
    }
  ],
  "textures": [
    {
      "sampler": 0,
      "source": 0,
      "name": "smd_1.jpg"
    },
    {
      "sampler": 1,
      "source": 1,
      "name": "ZTE_12_f_bmp.jpg"
    },
    {
      "sampler": 2,
      "source": 2,
      "name": "ZTE_11_f_bmp.jpg"
    },
    {
      "sampler": 3,
      "source": 3,
      "name": "ZTE_10_f_bmp.jpg"
    },
    {
      "sampler": 4,
      "source": 4,
      "name": "smd_3.jpg"
    }
  ],
  "samplers": [
    {
      "magFilter": 9729,
      "minFilter": 9987,
      "wrapS": 10497,
      "wrapT": 10497
    },
    {
      "magFilter": 9729,
      "minFilter": 9987,
      "wrapS": 10497,
      "wrapT": 10497
    },
    {
      "magFilter": 9729,
      "minFilter": 9987,
      "wrapS": 10497,
      "wrapT": 10497
    },
    {
      "magFilter": 9729,
      "minFilter": 9987,
      "wrapS": 10497,
      "wrapT": 10497
    },
    {
      "magFilter": 9729,
      "minFilter": 9987,
      "wrapS": 10497,
      "wrapT": 10497
    }
  ],
  "images": [
    {
      "mimeType": "image/png",
      "uri": "data:image/png;base64,"
    },
    {
      "mimeType": "image/png",
      "uri": "data:image/png;base64,"
    },
    {
      "mimeType": "image/png",
      "uri": "data:image/png;base64,"
    },
    {
      "mimeType": "image/png",
      "uri": "data:image/png;base64,"
    },
    {
      "mimeType": "image/png",
      "uri": "data:image/png;base64,"
    }
  ],
  "meshes": [
    {
      "primitives": [
        {
          "mode": 4,
          "attributes": {
            "COLOR_0": 0,
            "NORMAL": 1,
            "POSITION": 2,
            "TEXCOORD_0": 3,
            "TEXCOORD_1": 4,
            "_ALPHAINDEX": 5
          },
          "extras": {
            "$cacheKey": "https://model.3dmomoda.com/models/bc2dc9c4f4b446bfaaa98a3e6ea0bb46/0/gltf/true"
          },
          "indices": 6,
          "material": 0
        }
      ]
    },
    {
      "primitives": [
        {
          "mode": 4,
          "attributes": {
            "COLOR_0": 7,
            "NORMAL": 8,
            "POSITION": 9,
            "TEXCOORD_0": 10,
            "TEXCOORD_1": 11,
            "_ALPHAINDEX": 12
          },
          "indices": 13,
          "material": 1
        }
      ]
    },
    {
      "primitives": [
        {
          "mode": 4,
          "attributes": {
            "COLOR_0": 14,
            "NORMAL": 15,
            "POSITION": 16,
            "TEXCOORD_0": 17,
            "TEXCOORD_1": 18,
            "_ALPHAINDEX": 19
          },
          "indices": 20,
          "material": 2
        }
      ]
    },
    {
      "primitives": [
        {
          "mode": 4,
          "attributes": {
            "NORMAL": 21,
            "POSITION": 22,
            "TEXCOORD_0": 23,
            "TEXCOORD_1": 24
          },
          "indices": 25,
          "material": 3
        }
      ]
    }
  ]
}