{
  "asset": {
    "version": "2.0",
    "generator": "GLTFExporter"
  },
  "scenes": [
    {
      "name": "Root Scene",
      "nodes": [
        4
      ]
    }
  ],
  "scene": 0,
  "nodes": [
    {
      "matrix": [
        1,
        0,
        0,
        0,
        0,
        3.422854299994782e-8,
        -0.999999965771457,
        0,
        0,
        0.999999965771457,
        3.422854299994782e-8,
        0,
        -0.0263225138187408,
        0,
        0.0658616423606873,
        1
      ],
      "name": "Box001",
      "extras": {
        "name": "Box001"
      }
    },
    {
      "name": "Tr-户外植物13A_01_0",
      "mesh": 0
    },
    {
      "name": "Tr-户外植物13A_01_1",
      "mesh": 1
    },
    {
      "matrix": [
        1,
        0,
        0,
        0,
        0,
        3.422854299994782e-8,
        -0.999999965771457,
        0,
        0,
        0.999999965771457,
        3.422854299994782e-8,
        0,
        0,
        0,
        0,
        1
      ],
      "name": "Tr-户外植物13A_01",
      "extras": {
        "name": "Tr-户外植物13A_01"
      },
      "children": [
        1,
        2
      ]
    },
    {
      "name": "RootNode",
      "extras": {
        "name": "RootNode"
      },
      "children": [
        0,
        3
      ]
    }
  ],
  "bufferViews": [
    {
      "buffer": 0,
      "byteOffset": 0,
      "byteLength": 7212,
      "target": 34962,
      "byteStride": 12
    },
    {
      "buffer": 0,
      "byteOffset": 7212,
      "byteLength": 7212,
      "target": 34962,
      "byteStride": 12
    },
    {
      "buffer": 0,
      "byteOffset": 14424,
      "byteLength": 4808,
      "target": 34962,
      "byteStride": 8
    },
    {
      "buffer": 0,
      "byteOffset": 19232,
      "byteLength": 4808,
      "target": 34962,
      "byteStride": 8
    },
    {
      "buffer": 0,
      "byteOffset": 24040,
      "byteLength": 4592,
      "target": 34963
    },
    {
      "buffer": 0,
      "byteOffset": 28632,
      "byteLength": 15336,
      "target": 34962,
      "byteStride": 12
    },
    {
      "buffer": 0,
      "byteOffset": 43968,
      "byteLength": 15336,
      "target": 34962,
      "byteStride": 12
    },
    {
      "buffer": 0,
      "byteOffset": 59304,
      "byteLength": 10224,
      "target": 34962,
      "byteStride": 8
    },
    {
      "buffer": 0,
      "byteOffset": 69528,
      "byteLength": 10224,
      "target": 34962,
      "byteStride": 8
    },
    {
      "buffer": 0,
      "byteOffset": 79752,
      "byteLength": 6816,
      "target": 34963
    }
  ],
  "buffers": [
    {
      "byteLength": 86568,
      "uri": "data:application/octet-stream;base64,"
    }
  ],
  "accessors": [
    {
      "bufferView": 0,
      "componentType": 5126,
      "count": 601,
      "max": [
        1,
        0.9990713000297546,
        0.9908321499824524
      ],
      "min": [
        -0.9996106624603271,
        -0.999411404132843,
        -0.8447698950767517
      ],
      "type": "VEC3"
    },
    {
      "bufferView": 1,
      "componentType": 5126,
      "count": 601,
      "max": [
        1.8156871795654297,
        1.9363508224487305,
        7.267430305480957
      ],
      "min": [
        -2.0660314559936523,
        -2.2831695079803467,
        -0.026976458728313446
      ],
      "type": "VEC3"
    },
    {
      "bufferView": 2,
      "componentType": 5126,
      "count": 601,
      "max": [
        8.834407806396484,
        9.5429105758667
      ],
      "min": [
        -11.409515380859375,
        -6.071478366851807
      ],
      "type": "VEC2"
    },
    {
      "bufferView": 3,
      "componentType": 5126,
      "count": 601,
      "max": [
        8.834407806396484,
        9.5429105758667
      ],
      "min": [
        -11.409515380859375,
        -6.071478366851807
      ],
      "type": "VEC2"
    },
    {
      "bufferView": 4,
      "componentType": 5123,
      "count": 2295,
      "max": [
        600
      ],
      "min": [
        0
      ],
      "type": "SCALAR"
    },
    {
      "bufferView": 5,
      "componentType": 5126,
      "count": 1278,
      "max": [
        0.9212222695350647,
        0.8784976005554199,
        0.9994403123855591
      ],
      "min": [
        -0.9212222695350647,
        -0.8784976005554199,
        -0.9994403123855591
      ],
      "type": "VEC3"
    },
    {
      "bufferView": 6,
      "componentType": 5126,
      "count": 1278,
      "max": [
        3.8137142658233643,
        3.2859907150268555,
        7.779565334320068
      ],
      "min": [
        -4.041722297668457,
        -4.1623311042785645,
        2.4383249282836914
      ],
      "type": "VEC3"
    },
    {
      "bufferView": 7,
      "componentType": 5126,
      "count": 1278,
      "max": [
        1.0007166862487793,
        1.0007166862487793
      ],
      "min": [
        -0.0007165945135056973,
        -0.0007165670394897461
      ],
      "type": "VEC2"
    },
    {
      "bufferView": 8,
      "componentType": 5126,
      "count": 1278,
      "max": [
        1.0007166862487793,
        1.0007166862487793
      ],
      "min": [
        -0.0007165945135056973,
        -0.0007165670394897461
      ],
      "type": "VEC2"
    },
    {
      "bufferView": 9,
      "componentType": 5123,
      "count": 3408,
      "max": [
        1277
      ],
      "min": [
        0
      ],
      "type": "SCALAR"
    }
  ],
  "materials": [
    {
      "pbrMetallicRoughness": {
        "baseColorFactor": [
          1.1,
          1.1,
          1.1,
          1
        ],
        "metallicFactor": 0.099999994,
        "roughnessFactor": 1,
        "baseColorTexture": {
          "index": 0
        }
      },
      "name": "Std_2ep60256.tga",
      "extras": {
        "gltfExtensions": {}
      }
    },
    {
      "pbrMetallicRoughness": {
        "baseColorFactor": [
          1.1,
          1.1,
          1.1,
          1
        ],
        "metallicFactor": 0.099999994,
        "roughnessFactor": 1,
        "baseColorTexture": {
          "index": 1
        }
      },
      "alphaMode": "MASK",
      "alphaCutoff": 0.5,
      "name": "Std_2ep60643.tga_alpha",
      "extras": {
        "gltfExtensions": {}
      }
    }
  ],
  "textures": [
    {
      "sampler": 0,
      "source": 0,
      "name": "smd_1.jpg"
    },
    {
      "sampler": 1,
      "source": 1,
      "name": "smd_2_f_tga.png"
    }
  ],
  "samplers": [
    {
      "magFilter": 9729,
      "minFilter": 9987,
      "wrapS": 10497,
      "wrapT": 10497
    },
    {
      "magFilter": 9729,
      "minFilter": 9987,
      "wrapS": 10497,
      "wrapT": 10497
    }
  ],
  "images": [
    {
      "mimeType": "image/png",
      "uri": "data:image/png;base64,"
    },
    {
      "mimeType": "image/png",
      "uri": "data:image/png;base64,"
    }
  ],
  "meshes": [
    {
      "primitives": [
        {
          "mode": 4,
          "attributes": {
            "NORMAL": 0,
            "POSITION": 1,
            "TEXCOORD_0": 2,
            "TEXCOORD_1": 3
          },
          "extras": {
            "$cacheKey": "https://model.3dmomoda.com/models/c26acc8a9f804d8da2f49aba46283ac3/0/gltf/true"
          },
          "indices": 4,
          "material": 0
        }
      ]
    },
    {
      "primitives": [
        {
          "mode": 4,
          "attributes": {
            "NORMAL": 5,
            "POSITION": 6,
            "TEXCOORD_0": 7,
            "TEXCOORD_1": 8
          },
          "indices": 9,
          "material": 1
        }
      ]
    }
  ]
}