{
  "asset": {
    "version": "2.0",
    "generator": "GLTFExporter"
  },
  "scenes": [
    {
      "name": "Root Scene",
      "nodes": [
        1
      ]
    }
  ],
  "scene": 0,
  "nodes": [
    {
      "matrix": [
        0.0121027501299977,
        0,
        0,
        0,
        0,
        4.1425950324225034e-10,
        -0.012102749715738197,
        0,
        0,
        0.012102749715738197,
        4.1425950324225034e-10,
        0,
        0,
        0,
        0,
        1
      ],
      "name": "hydrant_low",
      "extras": {
        "name": "hydrant_low"
      },
      "mesh": 0
    },
    {
      "name": "RootNode",
      "extras": {
        "name": "RootNode"
      },
      "children": [
        0
      ]
    }
  ],
  "bufferViews": [
    {
      "buffer": 0,
      "byteOffset": 0,
      "byteLength": 34560,
      "target": 34962,
      "byteStride": 12
    },
    {
      "buffer": 0,
      "byteOffset": 34560,
      "byteLength": 34560,
      "target": 34962,
      "byteStride": 12
    },
    {
      "buffer": 0,
      "byteOffset": 69120,
      "byteLength": 23040,
      "target": 34962,
      "byteStride": 8
    },
    {
      "buffer": 0,
      "byteOffset": 92160,
      "byteLength": 23040,
      "target": 34962,
      "byteStride": 8
    },
    {
      "buffer": 0,
      "byteOffset": 115200,
      "byteLength": 11904,
      "target": 34963
    }
  ],
  "buffers": [
    {
      "byteLength": 127104,
      "uri": "data:application/octet-stream;base64,"
    }
  ],
  "accessors": [
    {
      "bufferView": 0,
      "componentType": 5126,
      "count": 2880,
      "max": [
        1,
        1,
        1
      ],
      "min": [
        -1,
        -1,
        -1
      ],
      "type": "VEC3"
    },
    {
      "bufferView": 1,
      "componentType": 5126,
      "count": 2880,
      "max": [
        12.47414779663086,
        8.649999618530273,
        49.11943054199219
      ],
      "min": [
        -13.03958511352539,
        -13.556745529174805,
        0
      ],
      "type": "VEC3"
    },
    {
      "bufferView": 2,
      "componentType": 5126,
      "count": 2880,
      "max": [
        0.5983096361160278,
        0.2878381013870239
      ],
      "min": [
        0.02067139931023121,
        0.1747598648071289
      ],
      "type": "VEC2"
    },
    {
      "bufferView": 3,
      "componentType": 5126,
      "count": 2880,
      "max": [
        0.9903354644775391,
        0.9719893932342529
      ],
      "min": [
        0.005819236394017935,
        0.022591829299926758
      ],
      "type": "VEC2"
    },
    {
      "bufferView": 4,
      "componentType": 5123,
      "count": 5952,
      "max": [
        2879
      ],
      "min": [
        0
      ],
      "type": "SCALAR"
    }
  ],
  "materials": [
    {
      "pbrMetallicRoughness": {
        "metallicFactor": 0.099999994,
        "roughnessFactor": 1,
        "baseColorTexture": {
          "index": 0
        }
      },
      "name": "Std_NTexture_01_jpg",
      "extras": {
        "gltfExtensions": {}
      }
    }
  ],
  "textures": [
    {
      "sampler": 0,
      "source": 0,
      "name": "smd_1.jpg"
    }
  ],
  "samplers": [
    {
      "magFilter": 9729,
      "minFilter": 9987,
      "wrapS": 10497,
      "wrapT": 10497
    }
  ],
  "images": [
    {
      "mimeType": "image/png",
      "uri": "data:image/png;base64,"
    }
  ],
  "meshes": [
    {
      "primitives": [
        {
          "mode": 4,
          "attributes": {
            "NORMAL": 0,
            "POSITION": 1,
            "TEXCOORD_0": 2,
            "TEXCOORD_1": 3
          },
          "extras": {
            "$cacheKey": "https://model.3dmomoda.com/models/C3B70F51107C4ED7BC525A8B82D11E7A/0/gltf/true"
          },
          "indices": 4,
          "material": 0
        }
      ]
    }
  ]
}