{
  "asset": {
    "version": "2.0",
    "generator": "GLTFExporter"
  },
  "scenes": [
    {
      "name": "Root Scene",
      "nodes": [
        1
      ]
    }
  ],
  "scene": 0,
  "nodes": [
    {
      "matrix": [
        1,
        0,
        0,
        0,
        0,
        3.422854299994782e-8,
        -0.999999965771457,
        0,
        0,
        0.999999965771457,
        3.422854299994782e-8,
        0,
        -9.31322574615479e-8,
        0.289123833179474,
        0.0496310628950596,
        1
      ],
      "name": "Line003",
      "extras": {
        "name": "Line003"
      },
      "mesh": 0
    },
    {
      "name": "RootNode",
      "extras": {
        "name": "RootNode"
      },
      "children": [
        0
      ]
    }
  ],
  "bufferViews": [
    {
      "buffer": 0,
      "byteOffset": 0,
      "byteLength": 720,
      "target": 34962,
      "byteStride": 12
    },
    {
      "buffer": 0,
      "byteOffset": 720,
      "byteLength": 720,
      "target": 34962,
      "byteStride": 12
    },
    {
      "buffer": 0,
      "byteOffset": 1440,
      "byteLength": 480,
      "target": 34962,
      "byteStride": 8
    },
    {
      "buffer": 0,
      "byteOffset": 1920,
      "byteLength": 480,
      "target": 34962,
      "byteStride": 8
    },
    {
      "buffer": 0,
      "byteOffset": 2400,
      "byteLength": 288,
      "target": 34963
    }
  ],
  "buffers": [
    {
      "byteLength": 2688,
      "uri": "data:application/octet-stream;base64,"
    }
  ],
  "accessors": [
    {
      "bufferView": 0,
      "componentType": 5126,
      "count": 60,
      "max": [
        2.1612859768538328e-7,
        0.9702997803688049,
        0.5653727650642395
      ],
      "min": [
        -2.1829004026585608e-7,
        -0.9703233242034912,
        -0.5653728246688843
      ],
      "type": "VEC3"
    },
    {
      "bufferView": 1,
      "componentType": 5126,
      "count": 60,
      "max": [
        0.30000028014183044,
        0.21609030663967133,
        0.3607635796070099
      ],
      "min": [
        -0.3000001013278961,
        -0.11858761310577393,
        -0.28955838084220886
      ],
      "type": "VEC3"
    },
    {
      "bufferView": 2,
      "componentType": 5126,
      "count": 60,
      "max": [
        4.926305770874023,
        1.0078259706497192
      ],
      "min": [
        -0.09578140079975128,
        -2.7893574237823486
      ],
      "type": "VEC2"
    },
    {
      "bufferView": 3,
      "componentType": 5126,
      "count": 60,
      "max": [
        4.926305770874023,
        1.0078259706497192
      ],
      "min": [
        -0.09578140079975128,
        -2.7893574237823486
      ],
      "type": "VEC2"
    },
    {
      "bufferView": 4,
      "componentType": 5123,
      "count": 144,
      "max": [
        59
      ],
      "min": [
        0
      ],
      "type": "SCALAR"
    }
  ],
  "materials": [
    {
      "pbrMetallicRoughness": {
        "metallicFactor": 0,
        "roughnessFactor": 1,
        "baseColorTexture": {
          "index": 0
        }
      },
      "emissiveTexture": {
        "index": 0
      },
      "alphaMode": "BLEND",
      "name": "Standard_20_alpha",
      "extras": {
        "gltfExtensions": {
          "sceneBlend": "Additive",
          "baseColorTexture": {
            "textureExtensions": [
              {
                "index": 0,
                "texCoord": 0,
                "extensions": {
                  "scrollAnim": [
                    0,
                    -1.2
                  ]
                }
              }
            ]
          },
          "emissiveTexture": {
            "textureExtensions": [
              {
                "index": 0,
                "texCoord": 0,
                "extensions": {
                  "scrollAnim": [
                    0,
                    -1.2
                  ]
                }
              }
            ]
          }
        }
      }
    }
  ],
  "textures": [
    {
      "sampler": 0,
      "source": 0,
      "name": "smd_1_f_tga.png"
    }
  ],
  "samplers": [
    {
      "magFilter": 9729,
      "minFilter": 9987,
      "wrapS": 10497,
      "wrapT": 10497
    }
  ],
  "images": [
    {
      "mimeType": "image/png",
      "uri": "data:image/png;base64,"
    }
  ],
  "meshes": [
    {
      "primitives": [
        {
          "mode": 4,
          "attributes": {
            "NORMAL": 0,
            "POSITION": 1,
            "TEXCOORD_0": 2,
            "TEXCOORD_1": 3
          },
          "extras": {
            "$cacheKey": "https://model.3dmomoda.com/models/de71ce36805a49ed96d9ba5a7b46bcb1/0/gltf/true"
          },
          "indices": 4,
          "material": 0
        }
      ]
    }
  ]
}