{
  "asset": {
    "version": "2.0",
    "generator": "GLTFExporter"
  },
  "scenes": [
    {
      "name": "Root Scene",
      "nodes": [
        3
      ]
    }
  ],
  "scene": 0,
  "nodes": [
    {
      "matrix": [
        1,
        0,
        0,
        0,
        0,
        1,
        0,
        0,
        0,
        0,
        1,
        0,
        0.190982818603516,
        5.96046447753906e-8,
        0,
        1
      ],
      "name": "Cylinder007",
      "extras": {
        "name": "Cylinder007",
        "gltfExtensions": {
          "effects": {
            "glow": 1,
            "bloom": true
          }
        }
      },
      "mesh": 0
    },
    {
      "matrix": [
        1,
        0,
        0,
        0,
        0,
        1,
        0,
        0,
        0,
        0,
        1,
        0,
        0.190982818603516,
        5.96046447753906e-8,
        0,
        1
      ],
      "name": "Cylinder003",
      "extras": {
        "name": "Cylinder003",
        "gltfExtensions": {
          "effects": {
            "glow": 1,
            "bloom": true
          }
        }
      },
      "mesh": 1
    },
    {
      "matrix": [
        0.276739001274109,
        0,
        0,
        0,
        0,
        9.472372804873454e-9,
        -0.27673899180173617,
        0,
        0,
        0.27673899180173617,
        9.472372804873454e-9,
        0,
        0,
        1,
        0,
        1
      ],
      "name": "Dummy003",
      "extras": {
        "name": "Dummy003"
      },
      "children": [
        0,
        1
      ]
    },
    {
      "name": "RootNode",
      "extras": {
        "name": "RootNode"
      },
      "children": [
        2
      ]
    }
  ],
  "bufferViews": [
    {
      "buffer": 0,
      "byteOffset": 0,
      "byteLength": 4464,
      "target": 34962,
      "byteStride": 12
    },
    {
      "buffer": 0,
      "byteOffset": 4464,
      "byteLength": 4464,
      "target": 34962,
      "byteStride": 12
    },
    {
      "buffer": 0,
      "byteOffset": 8928,
      "byteLength": 2976,
      "target": 34962,
      "byteStride": 8
    },
    {
      "buffer": 0,
      "byteOffset": 11904,
      "byteLength": 768,
      "target": 34963
    },
    {
      "buffer": 0,
      "byteOffset": 12672,
      "byteLength": 156,
      "target": 34962,
      "byteStride": 12
    },
    {
      "buffer": 0,
      "byteOffset": 12828,
      "byteLength": 156,
      "target": 34962,
      "byteStride": 12
    },
    {
      "buffer": 0,
      "byteOffset": 12984,
      "byteLength": 104,
      "target": 34962,
      "byteStride": 8
    },
    {
      "buffer": 0,
      "byteOffset": 13088,
      "byteLength": 48,
      "target": 34963
    }
  ],
  "buffers": [
    {
      "byteLength": 13136,
      "uri": "data:application/octet-stream;base64,"
    }
  ],
  "accessors": [
    {
      "bufferView": 0,
      "componentType": 5126,
      "count": 372,
      "max": [
        0.7071068286895752,
        0.7369650602340698,
        0.7071067690849304
      ],
      "min": [
        -0.7071068286895752,
        -0.7369608283042908,
        -0.7071146965026855
      ],
      "type": "VEC3"
    },
    {
      "bufferView": 1,
      "componentType": 5126,
      "count": 372,
      "max": [
        1.8790171146392822,
        1.9721131324768066,
        5.070000171661377
      ],
      "min": [
        -1.8790169954299927,
        -1.9721131324768066,
        -0.07000000029802322
      ],
      "type": "VEC3"
    },
    {
      "bufferView": 2,
      "componentType": 5126,
      "count": 372,
      "max": [
        0.949999988079071,
        1
      ],
      "min": [
        -0.20000003278255463,
        0
      ],
      "type": "VEC2"
    },
    {
      "bufferView": 3,
      "componentType": 5123,
      "count": 384,
      "max": [
        371
      ],
      "min": [
        0
      ],
      "type": "SCALAR"
    },
    {
      "bufferView": 4,
      "componentType": 5126,
      "count": 13,
      "max": [
        0.9284766912460327,
        0.883033812046051,
        1
      ],
      "min": [
        -0.7511534690856934,
        -0.8830337524414062,
        -1
      ],
      "type": "VEC3"
    },
    {
      "bufferView": 5,
      "componentType": 5126,
      "count": 13,
      "max": [
        1.8090171813964844,
        1.9021129608154297,
        5
      ],
      "min": [
        -1.8090169429779053,
        -1.9021129608154297,
        0
      ],
      "type": "VEC3"
    },
    {
      "bufferView": 6,
      "componentType": 5126,
      "count": 13,
      "max": [
        0.949999988079071,
        1
      ],
      "min": [
        -0.050000011920928955,
        0
      ],
      "type": "VEC2"
    },
    {
      "bufferView": 7,
      "componentType": 5123,
      "count": 24,
      "max": [
        12
      ],
      "min": [
        0
      ],
      "type": "SCALAR"
    }
  ],
  "materials": [
    {
      "pbrMetallicRoughness": {
        "baseColorFactor": [
          0.90196085,
          0.8705883,
          0,
          1
        ],
        "metallicFactor": 0.099999994,
        "roughnessFactor": 1
      },
      "emissiveFactor": [
        0.937254965,
        0.9176471,
        0.3803922
      ],
      "alphaMode": "BLEND",
      "name": "钻石描边_alpha",
      "extras": {
        "gltfExtensions": {
          "sceneBlend": "Additive"
        }
      }
    },
    {
      "pbrMetallicRoughness": {
        "baseColorFactor": [
          1,
          1,
          1,
          0.7
        ],
        "metallicFactor": 0,
        "roughnessFactor": 1,
        "baseColorTexture": {
          "index": 0
        }
      },
      "emissiveTexture": {
        "index": 1
      },
      "alphaMode": "BLEND",
      "name": "钻石-底色_alpha",
      "extras": {
        "gltfExtensions": {
          "sceneBlend": "Additive"
        }
      }
    }
  ],
  "meshes": [
    {
      "primitives": [
        {
          "mode": 4,
          "attributes": {
            "NORMAL": 0,
            "POSITION": 1,
            "TEXCOORD_0": 2
          },
          "extras": {
            "$cacheKey": "https://model.3dmomoda.com/models/ff6fffd7776c40b0882962530e7d12cd/0/gltf/true"
          },
          "indices": 3,
          "material": 0
        }
      ]
    },
    {
      "primitives": [
        {
          "mode": 4,
          "attributes": {
            "NORMAL": 4,
            "POSITION": 5,
            "TEXCOORD_0": 6
          },
          "indices": 7,
          "material": 1
        }
      ]
    }
  ],
  "textures": [
    {
      "sampler": 0,
      "source": 0,
      "name": "smd_1_f_png.jpg"
    },
    {
      "sampler": 1,
      "source": 1,
      "name": "smd_1.png"
    }
  ],
  "samplers": [
    {
      "magFilter": 9729,
      "minFilter": 9987,
      "wrapS": 10497,
      "wrapT": 10497
    },
    {
      "magFilter": 9729,
      "minFilter": 9987,
      "wrapS": 10497,
      "wrapT": 10497
    }
  ],
  "images": [
    {
      "mimeType": "image/png",
      "uri": "data:image/png;base64,"
    },
    {
      "mimeType": "image/png",
      "uri": "data:image/png;base64,"
    }
  ]
}